<svg width="230" height="230" viewBox="0 0 230 230" fill="none" xmlns="http://www.w3.org/2000/svg">
<circle cx="115" cy="115" r="115" fill="url(#paint0_radial_14_2)"/>
<path d="M164.023 135.66H73.0809C73.0809 135.66 62.7262 151.417 68.5788 156.82C74.4315 162.222 74.4315 164.923 86.137 161.772C97.8424 158.62 139.261 160.871 150.517 159.521C161.772 158.17 166.724 164.923 173.027 156.82C179.33 148.716 164.023 135.66 164.023 135.66Z" fill="#231305" stroke="black" stroke-linecap="round"/>
<path d="M71.7303 110.592C67.2281 125.899 68.5789 138.684 76.6826 143.006C84.7863 147.328 102.344 149.76 118.552 149.31C134.759 148.859 155.469 149.31 161.772 140.756C168.075 132.201 165.373 120.045 164.923 115.544C164.473 111.042 149.616 45.762 118.552 46.6624C87.4876 47.5628 71.7303 110.592 71.7303 110.592Z" fill="#E7C9B1" stroke="black" stroke-width="0.5"/>
<g filter="url(#filter0_d_14_2)">
<path d="M68.1286 41.2591C73.5311 36.757 81.6349 28.2031 95.1411 29.5537C108.647 30.9043 117.651 43.0599 117.651 43.0599C117.651 43.0599 129.357 22.8006 146.465 37.2072C146.465 37.2072 163.122 47.562 177.529 71.8732C177.529 71.8732 191.936 97.0848 193.737 102.487C195.537 107.89 200.533 120.496 201.84 122.747C203.147 124.998 208.143 129.95 208.143 134.902C208.143 139.855 203.104 143.006 203.147 147.058C203.191 151.11 210.394 157.413 207.693 162.815C204.992 168.218 201.84 168.668 198.689 170.469C195.537 172.269 188.784 171.819 185.183 171.819C181.581 171.819 177.529 174.971 169.876 170.469C162.222 165.967 168.075 158.313 165.373 153.361C165.373 153.361 161.322 149.759 160.421 146.157C159.521 142.556 163.573 135.803 163.573 129.95C163.573 124.097 161.322 113.292 161.322 113.292C161.322 113.292 159.521 104.288 155.469 97.0848C151.417 89.8815 146.465 84.9292 146.465 84.9292L144.214 94.8338L142.863 86.73C142.863 86.73 141.512 78.6263 140.612 75.9251C139.712 73.2238 137.461 66.4707 134.759 63.7695C132.058 61.0682 130.257 58.367 126.656 57.9168C123.054 57.4666 120.803 61.5184 120.803 61.5184C120.803 61.5184 118.102 56.5662 114.5 56.5662C110.898 56.5662 104.145 64.2197 102.795 66.4707C101.444 68.7218 98.2925 73.2238 95.1411 80.4272C91.9896 87.6305 80.7344 104.738 80.7344 104.738L84.7863 84.479C84.7863 84.479 78.0332 100.236 75.3319 106.089C72.6307 111.942 70.8299 123.197 70.8299 127.249C70.8299 131.301 74.8817 139.404 74.8817 142.556C74.8817 145.707 72.6307 145.257 72.6307 152.46C72.6307 159.664 75.3319 165.066 73.5311 169.118C71.7303 173.17 68.5788 171.819 63.6266 174.971C58.6743 178.122 59.5747 179.023 54.1722 179.473C52.6055 179.603 47.5782 178.772 43.8174 176.321C40.6077 174.229 40.666 171.819 36.6141 170.469C32.6998 167.427 35.1284 166.698 33.4627 164.616C29.861 160.114 27.61 162.815 25.8091 155.612C24.0083 148.408 28.5104 143.456 27.61 139.404C26.7095 135.352 22.2075 134.902 22.2075 129.5C22.2075 124.097 25.8091 115.543 25.8091 115.543C27.1597 112.392 34.8133 96.1844 36.6141 92.5827C38.4149 88.9811 46.9689 68.2715 51.9212 61.5184C56.8734 54.7653 62.7261 45.7612 68.1286 41.2591Z" fill="#4D311B"/>
<path d="M68.1286 41.2591C73.5311 36.757 81.6349 28.2031 95.1411 29.5537C108.647 30.9043 117.651 43.0599 117.651 43.0599C117.651 43.0599 129.357 22.8006 146.465 37.2072C146.465 37.2072 163.122 47.562 177.529 71.8732C177.529 71.8732 191.936 97.0848 193.737 102.487C195.537 107.89 200.533 120.496 201.84 122.747C203.147 124.998 208.143 129.95 208.143 134.902C208.143 139.855 203.104 143.006 203.147 147.058C203.191 151.11 210.394 157.413 207.693 162.815C204.992 168.218 201.84 168.668 198.689 170.469C195.537 172.269 188.784 171.819 185.183 171.819C181.581 171.819 177.529 174.971 169.876 170.469C162.222 165.967 168.075 158.313 165.373 153.361C165.373 153.361 161.322 149.759 160.421 146.157C159.521 142.556 163.573 135.803 163.573 129.95C163.573 124.097 161.322 113.292 161.322 113.292C161.322 113.292 159.521 104.288 155.469 97.0848C151.417 89.8815 146.465 84.9292 146.465 84.9292L144.214 94.8338L142.863 86.73C142.863 86.73 141.512 78.6263 140.612 75.9251C139.712 73.2238 137.461 66.4707 134.759 63.7695C132.058 61.0682 130.257 58.367 126.656 57.9168C123.054 57.4666 120.803 61.5184 120.803 61.5184C120.803 61.5184 118.102 56.5662 114.5 56.5662C110.898 56.5662 104.145 64.2197 102.795 66.4707C101.444 68.7218 98.2925 73.2238 95.1411 80.4272C91.9896 87.6305 80.7344 104.738 80.7344 104.738L84.7863 84.479C84.7863 84.479 78.0332 100.236 75.3319 106.089C72.6307 111.942 70.8299 123.197 70.8299 127.249C70.8299 131.301 74.8817 139.404 74.8817 142.556C74.8817 145.707 72.6307 145.257 72.6307 152.46C72.6307 159.664 75.3319 165.066 73.5311 169.118C71.7303 173.17 68.5788 171.819 63.6266 174.971C58.6743 178.122 59.5747 179.023 54.1722 179.473C52.6055 179.603 47.5782 178.772 43.8174 176.321C40.6077 174.229 40.666 171.819 36.6141 170.469C32.6998 167.427 35.1284 166.698 33.4627 164.616C29.861 160.114 27.61 162.815 25.8091 155.612C24.0083 148.408 28.5104 143.456 27.61 139.404C26.7095 135.352 22.2075 134.902 22.2075 129.5C22.2075 124.097 25.8091 115.543 25.8091 115.543C27.1597 112.392 34.8133 96.1844 36.6141 92.5827C38.4149 88.9811 46.9689 68.2715 51.9212 61.5184C56.8734 54.7653 62.7261 45.7612 68.1286 41.2591Z" stroke="black"/>
</g>
<path fill-rule="evenodd" clip-rule="evenodd" d="M124.405 119.145H111.349C111.349 119.145 111.349 124.306 112.969 128.149C112.969 128.149 114.05 126.799 115.4 126.799C116.751 126.799 117.651 128.149 117.651 128.149C117.651 128.149 119.002 127.249 120.353 127.699C121.703 128.149 122.383 129.95 122.383 129.95C125.187 126.189 124.405 119.145 124.405 119.145Z" fill="#451212"/>
<path d="M112.969 128.149C114.013 130.625 115.729 132.554 118.552 132.201C120.272 131.986 121.504 131.129 122.383 129.95C122.383 129.95 121.703 128.149 120.353 127.699C119.002 127.249 117.651 128.149 117.651 128.149C117.651 128.149 116.751 126.799 115.4 126.799C114.05 126.799 112.969 128.149 112.969 128.149Z" fill="#E89797"/>
<path d="M112.969 128.149C114.013 130.625 115.729 132.554 118.552 132.201C120.272 131.986 121.504 131.129 122.383 129.95M112.969 128.149C111.349 124.306 111.349 119.145 111.349 119.145H124.405C124.405 119.145 125.187 126.189 122.383 129.95M112.969 128.149C112.969 128.149 114.05 126.799 115.4 126.799C116.751 126.799 117.651 128.149 117.651 128.149C117.651 128.149 119.002 127.249 120.353 127.699C121.703 128.149 122.383 129.95 122.383 129.95" stroke="black" stroke-width="0.5"/>
<path d="M150.183 103.353C148.709 102.935 147.108 102.565 145.262 102.503C142.892 102.423 140.567 102.822 138.587 103.353C138.587 103.353 133.943 107.602 137.388 113.903C138.855 113.813 141.817 113.705 145.262 113.976C147.342 114.139 148.982 114.392 150.183 114.63C155.104 109.531 150.183 103.353 150.183 103.353Z" fill="#311F11"/>
<path d="M132.959 105.477C132.959 105.477 135.295 104.234 138.587 103.353M156.58 104.627C159.533 104.203 161.01 101.653 161.01 101.653M156.58 104.627C156.58 104.627 158.057 105.052 159.533 105.052C161.01 105.052 162.978 103.353 162.978 103.353M156.58 104.627C154.728 104.894 152.664 104.056 150.183 103.353M150.183 103.353C148.709 102.935 147.108 102.565 145.262 102.503C142.892 102.423 140.567 102.822 138.587 103.353M150.183 103.353C150.183 103.353 155.104 109.531 150.183 114.63M137.388 113.903C133.943 107.602 138.587 103.353 138.587 103.353M152.643 115.25C152.643 115.25 150.183 114.362 145.262 113.976C140.34 113.589 136.403 113.976 136.403 113.976M149.691 95.7043C149.691 95.7043 147.23 94.8544 144.277 94.4295C141.325 94.0046 137.388 94.4295 137.388 94.4295" stroke="black" stroke-width="1.2" stroke-linecap="round"/>
<path d="M139.015 108.947C139.015 111.6 141.373 113.75 144.282 113.75C147.19 113.75 149.548 111.6 149.548 108.947C149.548 106.295 147.19 104.145 144.282 104.145C141.373 104.145 139.015 106.295 139.015 108.947Z" fill="black"/>
<path d="M145.335 106.546C145.335 107.342 146.042 107.987 146.915 107.987C147.788 107.987 148.495 107.342 148.495 106.546C148.495 105.751 147.788 105.106 146.915 105.106C146.042 105.106 145.335 105.751 145.335 106.546Z" fill="white"/>
<path d="M143.228 108.947C143.228 109.478 143.7 109.908 144.282 109.908C144.863 109.908 145.335 109.478 145.335 108.947C145.335 108.417 144.863 107.987 144.282 107.987C143.7 107.987 143.228 108.417 143.228 108.947Z" fill="white"/>
<path d="M147.331 110.102C146.961 109.723 146.978 108.98 146.978 108.98C146.978 108.98 146.935 109.723 146.573 110.087C146.211 110.452 145.301 110.434 145.301 110.434C145.301 110.434 146.185 110.452 146.558 110.738C146.93 111.024 146.91 111.86 146.91 111.86C146.91 111.86 146.93 111.024 147.316 110.753C147.702 110.481 148.46 110.496 148.46 110.496C148.46 110.496 147.702 110.481 147.331 110.102Z" fill="url(#paint1_radial_14_2)"/>
<path d="M143.06 105.787C142.301 104.92 142.175 101.744 142.175 101.744C142.175 101.744 142.25 104.92 141.543 105.787C140.836 106.655 136.908 106.655 136.908 106.655C136.908 106.655 140.785 106.655 141.543 107.305C142.085 107.77 142.175 110.125 142.182 111.431C142.171 111.954 142.175 112.309 142.175 112.309C142.175 112.309 142.185 111.954 142.182 111.431C142.211 110.125 142.34 107.77 142.881 107.305C143.64 106.655 146.915 106.546 146.915 106.546C146.915 106.546 143.818 106.655 143.06 105.787Z" fill="url(#paint2_radial_14_2)"/>
<path d="M86.89 102.881C88.325 102.457 89.8837 102.082 91.6817 102.019C93.9892 101.938 96.2531 102.343 98.1807 102.881C98.1807 102.881 102.703 107.191 99.3485 113.583C97.9193 113.492 95.0352 113.383 91.6817 113.657C89.6565 113.823 88.0593 114.079 86.89 114.32C82.0983 109.148 86.89 102.881 86.89 102.881Z" fill="#311F11"/>
<path d="M103.661 105.036C103.661 105.036 101.386 103.775 98.1807 102.881M80.6608 104.174C77.7857 103.743 76.3482 101.157 76.3482 101.157M80.6608 104.174C80.6608 104.174 79.2233 104.605 77.7857 104.605C76.3482 104.605 74.4315 102.881 74.4315 102.881M80.6608 104.174C82.4645 104.444 84.474 103.594 86.89 102.881M86.89 102.881C88.325 102.457 89.8837 102.082 91.6817 102.019C93.9892 101.938 96.2531 102.343 98.1807 102.881M86.89 102.881C86.89 102.881 82.0983 109.148 86.89 114.32M99.3485 113.583C102.703 107.191 98.1807 102.881 98.1807 102.881M84.4942 114.95C84.4942 114.95 86.89 114.049 91.6817 113.657C96.4735 113.265 100.307 113.657 100.307 113.657M87.5116 93.9246C87.5116 93.9246 90.3867 93.0625 93.2617 92.6314C96.1367 92.2004 98.5326 92.6314 98.5326 92.6314" stroke="black" stroke-width="1.2" stroke-linecap="round"/>
<path d="M98.3945 108.647C98.3945 111.299 96.0365 113.45 93.1279 113.45C90.2192 113.45 87.8613 111.299 87.8613 108.647C87.8613 105.995 90.2192 103.845 93.1279 103.845C96.0365 103.845 98.3945 105.995 98.3945 108.647Z" fill="black"/>
<path d="M92.0746 106.246C92.0746 107.042 91.3672 107.687 90.4946 107.687C89.622 107.687 88.9146 107.042 88.9146 106.246C88.9146 105.451 89.622 104.806 90.4946 104.806C91.3672 104.806 92.0746 105.451 92.0746 106.246Z" fill="white"/>
<path d="M94.1812 108.647C94.1812 109.178 93.7096 109.608 93.1279 109.608C92.5462 109.608 92.0746 109.178 92.0746 108.647C92.0746 108.117 92.5462 107.687 93.1279 107.687C93.7096 107.687 94.1812 108.117 94.1812 108.647Z" fill="white"/>
<path d="M90.0783 109.802C90.4486 109.423 90.4311 108.68 90.4311 108.68C90.4311 108.68 90.4745 109.422 90.8365 109.787C91.1985 110.152 92.109 110.134 92.109 110.134C92.109 110.134 91.2244 110.151 90.8519 110.438C90.4793 110.724 90.4991 111.56 90.4991 111.56C90.4991 111.56 90.4793 110.724 90.0937 110.453C89.708 110.181 88.9498 110.196 88.9498 110.196C88.9498 110.196 89.708 110.181 90.0783 109.802Z" fill="url(#paint3_radial_14_2)"/>
<path d="M94.3497 105.487C95.1081 104.62 95.2345 101.444 95.2345 101.444C95.2345 101.444 95.1598 104.62 95.8665 105.487C96.5732 106.355 100.501 106.355 100.501 106.355C100.501 106.355 96.6249 106.355 95.8665 107.005C95.3247 107.47 95.2345 109.824 95.2271 111.131C95.2388 111.654 95.2345 112.009 95.2345 112.009C95.2345 112.009 95.2242 111.654 95.2271 111.131C95.1981 109.824 95.0699 107.47 94.5281 107.005C93.7697 106.355 90.4946 106.246 90.4946 106.246C90.4946 106.246 93.5913 106.355 94.3497 105.487Z" fill="url(#paint4_radial_14_2)"/>
<g filter="url(#filter1_f_14_2)">
<path d="M76.2324 123.336C76.2324 123.336 78.894 119.294 79.9586 119.294C81.0233 119.294 79.4263 123.914 80.4909 123.914C81.5556 123.914 84.7495 118.139 85.8141 118.717C86.8788 119.294 84.7495 123.336 85.8141 123.914C86.8788 124.491 90.0727 117.686 91.1374 117.686C92.202 117.686 90.0727 123.914 91.1374 123.914C92.202 123.914 95.3959 117.686 96.4606 117.686C97.5252 117.686 95.3959 123.914 96.4606 123.914C97.5252 123.914 100.994 117.686 100.994 117.686M133.315 123.336C133.315 123.336 136.509 117.686 137.574 117.686C138.638 117.686 136.509 123.914 137.574 123.914C138.638 123.914 141.832 117.109 142.897 117.686C143.962 118.264 141.832 123.336 142.897 123.914C143.962 124.491 145.85 118.717 146.915 118.717C147.98 118.717 147.156 123.914 148.22 123.914C149.285 123.914 151.947 119.294 153.011 119.294C154.076 119.294 152.479 123.914 153.543 123.914C154.608 123.914 157.27 119.294 157.27 119.294" stroke="#E7B1B1" stroke-width="2.5" stroke-linecap="round"/>
</g>
<path d="M75.7822 159.664C77.1328 157.863 89.7387 152.46 89.7387 152.46H155.469C155.469 152.46 164.023 156.512 164.923 157.413C165.824 158.313 166.274 160.564 163.573 161.915C160.871 163.265 157.72 162.815 157.72 162.815C157.72 162.815 167.625 171.369 168.075 174.521C168.525 177.672 168.075 179.473 163.573 179.923C159.071 180.373 154.569 178.572 154.569 178.572C154.569 178.572 153.218 181.724 148.716 182.174C144.214 182.624 140.162 179.473 140.162 179.473C140.162 179.473 141.532 183.975 134.759 183.975C127.987 183.975 127.556 179.923 127.556 179.923C124.425 180.149 122.849 179.453 120.353 176.772C118.894 179.212 117.201 180.373 113.6 180.823C113.6 180.823 111.799 184.425 106.847 184.425C101.894 184.425 100.544 180.823 100.544 180.823C100.544 180.823 98.2926 184.425 91.9897 183.975C85.6868 183.525 86.137 181.076 86.137 181.076C86.137 181.076 78.4834 183.777 74.8817 182.426C71.2801 181.076 73.081 176.321 73.9814 174.521C74.8818 172.72 82.0851 164.616 82.0851 164.616C82.0851 164.616 78.0332 166.417 76.2324 164.616C74.4316 162.815 74.4316 161.465 75.7822 159.664Z" fill="#E7C9B1"/>
<path d="M82.0851 164.616C82.0851 164.616 78.0332 166.417 76.2324 164.616C74.4316 162.815 74.4316 161.465 75.7822 159.664C77.1328 157.863 89.7387 152.46 89.7387 152.46H155.469C155.469 152.46 164.023 156.512 164.923 157.413C165.824 158.313 166.274 160.564 163.573 161.915C160.871 163.265 157.72 162.815 157.72 162.815C157.72 162.815 167.625 171.369 168.075 174.521C168.525 177.672 168.075 179.473 163.573 179.923C159.071 180.373 154.569 178.572 154.569 178.572M82.0851 164.616C82.0851 164.616 74.8818 172.72 73.9814 174.521C73.081 176.321 71.2801 181.076 74.8817 182.426C78.4834 183.777 86.137 181.076 86.137 181.076M82.0851 164.616L84.3361 162.365M86.137 181.076C86.137 181.076 85.6868 183.525 91.9897 183.975C98.2926 184.425 100.544 180.823 100.544 180.823M86.137 181.076L89.7387 172.72M100.544 180.823C100.544 180.823 101.894 184.425 106.847 184.425C111.799 184.425 113.6 180.823 113.6 180.823M100.544 180.823L101.894 175.871M113.6 180.823C117.201 180.373 118.894 179.212 120.353 176.772M113.6 180.823L113.149 175.421M120.353 176.772C122.849 179.453 124.425 180.149 127.556 179.923M120.353 176.772V175.421M127.556 179.923C127.556 179.923 127.987 183.975 134.759 183.975C141.532 183.975 140.162 179.473 140.162 179.473M127.556 179.923V175.421M140.162 179.473C140.162 179.473 144.214 182.624 148.716 182.174C153.218 181.724 154.569 178.572 154.569 178.572M140.162 179.473L138.811 174.07M154.569 178.572L150.517 170.469" stroke="black" stroke-linecap="round"/>
<g filter="url(#filter2_d_14_2)">
<path d="M121.819 175.871C107.23 176.723 93.3093 173.137 90.1888 171.369C86.9119 169.512 85.9369 162.149 86.5014 154.711C87.0319 147.722 88.9221 140.667 91.5395 138.054C94.2097 135.388 108.915 134.207 121.819 134.452C135.024 134.703 146.434 136.444 149.166 139.404C152.047 142.526 154.417 148.721 155.454 154.711C156.361 159.952 156.249 165.036 154.568 167.767C150.967 173.62 136.947 174.988 121.819 175.871Z" fill="#BC9678"/>
<path d="M121.819 175.871C107.23 176.723 93.3093 173.137 90.1888 171.369C86.9119 169.512 85.9369 162.149 86.5014 154.711C87.0319 147.722 88.9221 140.667 91.5395 138.054C94.2097 135.388 108.915 134.207 121.819 134.452C135.024 134.703 146.434 136.444 149.166 139.404C152.047 142.526 154.417 148.721 155.454 154.711C156.361 159.952 156.249 165.036 154.568 167.767C150.967 173.62 136.947 174.988 121.819 175.871Z" stroke="black" stroke-linecap="round"/>
</g>
<g filter="url(#filter3_d_14_2)">
<path d="M119.902 134.902V175.871M119.902 134.902C119.902 134.902 102.344 136.703 101.444 142.106C100.544 147.508 105.496 150.209 109.998 147.508C114.5 144.807 119.902 134.902 119.902 134.902ZM119.902 134.902C119.902 134.902 139.261 136.703 140.162 142.106C141.062 147.508 133.859 149.759 130.257 147.508C126.656 145.257 119.902 134.902 119.902 134.902ZM119.902 134.902C119.902 134.902 119.452 146.157 115.851 151.11C112.249 156.062 105.946 156.062 105.946 156.062M119.902 134.902C119.902 134.902 125.305 146.157 125.755 151.11C126.205 156.062 124.405 156.062 124.405 156.062M86.5871 156.962C86.5871 156.962 100.544 162.365 119.902 162.365C139.261 162.365 155.019 156.062 155.019 156.062" stroke="black" stroke-width="2" stroke-linecap="round" shape-rendering="crispEdges"/>
</g>
<defs>
<filter id="filter0_d_14_2" x="17.7075" y="28.9109" width="195.092" height="159.075" filterUnits="userSpaceOnUse" color-interpolation-filters="sRGB">
<feFlood flood-opacity="0" result="BackgroundImageFix"/>
<feColorMatrix in="SourceAlpha" type="matrix" values="0 0 0 0 0 0 0 0 0 0 0 0 0 0 0 0 0 0 127 0" result="hardAlpha"/>
<feOffset dy="4"/>
<feGaussianBlur stdDeviation="2"/>
<feComposite in2="hardAlpha" operator="out"/>
<feColorMatrix type="matrix" values="0 0 0 0 0 0 0 0 0 0 0 0 0 0 0 0 0 0 0.25 0"/>
<feBlend mode="normal" in2="BackgroundImageFix" result="effect1_dropShadow_14_2"/>
<feBlend mode="normal" in="SourceGraphic" in2="effect1_dropShadow_14_2" result="shape"/>
</filter>
<filter id="filter1_f_14_2" x="72.9822" y="114.399" width="87.5377" height="12.8074" filterUnits="userSpaceOnUse" color-interpolation-filters="sRGB">
<feFlood flood-opacity="0" result="BackgroundImageFix"/>
<feBlend mode="normal" in="SourceGraphic" in2="BackgroundImageFix" result="shape"/>
<feGaussianBlur stdDeviation="1" result="effect1_foregroundBlur_14_2"/>
</filter>
<filter id="filter2_d_14_2" x="81.8506" y="133.921" width="78.6676" height="50.5794" filterUnits="userSpaceOnUse" color-interpolation-filters="sRGB">
<feFlood flood-opacity="0" result="BackgroundImageFix"/>
<feColorMatrix in="SourceAlpha" type="matrix" values="0 0 0 0 0 0 0 0 0 0 0 0 0 0 0 0 0 0 127 0" result="hardAlpha"/>
<feOffset dy="4"/>
<feGaussianBlur stdDeviation="2"/>
<feComposite in2="hardAlpha" operator="out"/>
<feColorMatrix type="matrix" values="0 0 0 0 0 0 0 0 0 0 0 0 0 0 0 0 0 0 0.25 0"/>
<feBlend mode="normal" in2="BackgroundImageFix" result="effect1_dropShadow_14_2"/>
<feBlend mode="normal" in="SourceGraphic" in2="effect1_dropShadow_14_2" result="shape"/>
</filter>
<filter id="filter3_d_14_2" x="83.5869" y="132.898" width="74.4321" height="46.9736" filterUnits="userSpaceOnUse" color-interpolation-filters="sRGB">
<feFlood flood-opacity="0" result="BackgroundImageFix"/>
<feColorMatrix in="SourceAlpha" type="matrix" values="0 0 0 0 0 0 0 0 0 0 0 0 0 0 0 0 0 0 127 0" result="hardAlpha"/>
<feOffset dy="1"/>
<feGaussianBlur stdDeviation="1"/>
<feComposite in2="hardAlpha" operator="out"/>
<feColorMatrix type="matrix" values="0 0 0 0 0 0 0 0 0 0 0 0 0 0 0 0 0 0 0.15 0"/>
<feBlend mode="normal" in2="BackgroundImageFix" result="effect1_dropShadow_14_2"/>
<feBlend mode="normal" in="SourceGraphic" in2="effect1_dropShadow_14_2" result="shape"/>
</filter>
<radialGradient id="paint0_radial_14_2" cx="0" cy="0" r="1" gradientUnits="userSpaceOnUse" gradientTransform="translate(115 115) rotate(90) scale(115)">
<stop offset="0.648958" stop-color="white"/>
<stop offset="1" stop-color="#FFE3B9"/>
</radialGradient>
<radialGradient id="paint1_radial_14_2" cx="0" cy="0" r="1" gradientUnits="userSpaceOnUse" gradientTransform="translate(143.228 107.747) rotate(90) scale(6.00277 6.31989)">
<stop offset="0.497917" stop-color="white"/>
<stop offset="0.836458" stop-color="white" stop-opacity="0.865145"/>
<stop offset="1" stop-color="white" stop-opacity="0"/>
</radialGradient>
<radialGradient id="paint2_radial_14_2" cx="0" cy="0" r="1" gradientUnits="userSpaceOnUse" gradientTransform="translate(142.175 106.546) rotate(90) scale(3.36155 3.15995)">
<stop offset="0.497917" stop-color="white"/>
<stop offset="1" stop-color="white" stop-opacity="0"/>
</radialGradient>
<radialGradient id="paint3_radial_14_2" cx="0" cy="0" r="1" gradientUnits="userSpaceOnUse" gradientTransform="translate(94.1812 107.447) rotate(90) scale(6.00277 6.31989)">
<stop offset="0.497917" stop-color="white"/>
<stop offset="0.836458" stop-color="white" stop-opacity="0.865145"/>
<stop offset="1" stop-color="white" stop-opacity="0"/>
</radialGradient>
<radialGradient id="paint4_radial_14_2" cx="0" cy="0" r="1" gradientUnits="userSpaceOnUse" gradientTransform="translate(95.2345 106.246) rotate(90) scale(3.36155 3.15995)">
<stop offset="0.497917" stop-color="white"/>
<stop offset="1" stop-color="white" stop-opacity="0"/>
</radialGradient>
</defs>
</svg>
