<svg width="584" height="62" viewBox="0 0 584 62" fill="none" xmlns="http://www.w3.org/2000/svg">
<mask id="path-1-outside-1_331_26" maskUnits="userSpaceOnUse" x="-0.224121" y="0.450012" width="584" height="61" fill="black">
<rect fill="white" x="-0.224121" y="0.450012" width="584" height="61"/>
<path d="M42.8009 54.125C42.8009 54.525 42.5509 55.05 42.0509 55.7C41.6009 56.3 40.9509 56.9 40.1009 57.5C39.3009 58.1 38.3509 58.625 37.2509 59.075C36.2009 59.525 35.0759 59.75 33.8759 59.75C32.0259 59.75 30.4009 59.175 29.0009 58.025C27.6009 56.825 26.3259 55.2 25.1759 53.15C24.0759 51.1 23.0509 48.675 22.1009 45.875C21.1509 43.025 20.1759 39.95 19.1759 36.65L16.3259 38.525L14.9009 57.875C14.8509 58.275 14.7509 58.575 14.6009 58.775C14.4509 58.925 14.1509 59 13.7009 59H9.57588C6.72588 59 4.70088 58.45 3.50088 57.35C2.35088 56.2 1.77588 54.525 1.77588 52.325C1.77588 51.625 1.80088 50.575 1.85088 49.175C1.95088 47.725 2.07588 46.05 2.22588 44.15C2.37588 42.2 2.52588 40.075 2.67588 37.775C2.87588 35.475 3.07588 33.125 3.27588 30.725C3.62588 25.925 3.90088 22.125 4.10088 19.325C4.35088 16.525 4.52588 14.325 4.62588 12.725C4.72588 11.075 4.80088 9.87501 4.85088 9.12501C4.90088 8.32501 4.92588 7.57501 4.92588 6.87501C4.92588 6.12501 5.32588 5.75001 6.12588 5.75001H10.2509C11.8509 5.75001 13.1259 5.92501 14.0759 6.27501C15.0759 6.57501 15.8509 7.02501 16.4009 7.62501C16.9509 8.22501 17.3259 8.97501 17.5259 9.87501C17.7259 10.725 17.8259 11.725 17.8259 12.875C17.8259 14.025 17.7509 15.9 17.6009 18.5C17.5009 21.05 17.3259 23.925 17.0759 27.125C18.7759 25.025 20.8009 22.425 23.1509 19.325C25.5509 16.225 28.4509 12.4 31.8509 7.85001C32.0009 7.65001 32.2009 7.40001 32.4509 7.10001C32.7509 6.75001 33.0509 6.42501 33.3509 6.12501C33.7009 5.82501 34.0509 5.57501 34.4009 5.37501C34.8009 5.12501 35.1759 5.00001 35.5259 5.00001C36.1759 5.00001 36.9259 5.35001 37.7759 6.05001C38.6259 6.70001 39.4259 7.52501 40.1759 8.52501C40.9259 9.47501 41.5509 10.475 42.0509 11.525C42.6009 12.525 42.8759 13.375 42.8759 14.075C42.8759 15.525 41.5759 17.7 38.9759 20.6C36.3759 23.45 32.6509 26.75 27.8009 30.5C28.6509 31.95 29.6259 33.525 30.7259 35.225C31.8259 36.875 32.9259 38.575 34.0259 40.325C35.1259 42.025 36.2009 43.7 37.2509 45.35C38.3009 46.95 39.2259 48.4 40.0259 49.7C40.8759 50.95 41.5509 51.975 42.0509 52.775C42.5509 53.575 42.8009 54.025 42.8009 54.125Z"/>
<path d="M63.0667 24.125C63.0667 25.175 62.9667 26.65 62.7667 28.55C62.6167 30.45 62.4417 32.425 62.2417 34.475C62.0917 36.525 61.9167 38.45 61.7167 40.25C61.5667 42.05 61.4917 43.35 61.4917 44.15C61.4917 45.9 61.9167 47.275 62.7667 48.275C63.6667 49.225 64.8917 49.7 66.4417 49.7C67.7917 49.7 68.9167 49.175 69.8167 48.125C70.7667 47.025 71.5167 45.625 72.0667 43.925C72.6667 42.175 73.1417 40.2 73.4917 38C73.8417 35.8 74.0917 33.575 74.2417 31.325C74.4417 29.075 74.5917 26.9 74.6917 24.8C74.8417 22.65 74.9917 20.8 75.1417 19.25C75.1917 18.85 75.3417 18.5 75.5917 18.2C75.8417 17.9 76.2417 17.75 76.7917 17.75H79.4917C81.0417 17.75 82.2917 17.925 83.2417 18.275C84.2417 18.575 85.0167 19.025 85.5667 19.625C86.1667 20.225 86.5667 20.975 86.7667 21.875C87.0167 22.725 87.1417 23.725 87.1417 24.875C87.1417 25.625 87.0917 26.7 86.9917 28.1C86.9417 29.45 86.8167 31.35 86.6167 33.8C86.4167 36.2 86.1667 39.275 85.8667 43.025C85.6167 46.725 85.2917 51.325 84.8917 56.825C84.7917 57.875 84.6667 58.5 84.5167 58.7C84.4167 58.9 84.0167 59 83.3167 59H80.3917C78.8917 59 77.6417 58.825 76.6417 58.475C75.6917 58.125 74.9167 57.675 74.3167 57.125C73.7167 56.575 73.2917 55.925 73.0417 55.175C72.7917 54.425 72.6417 53.65 72.5917 52.85C71.8417 54.15 70.9917 55.25 70.0417 56.15C69.1417 57.05 68.1917 57.775 67.1917 58.325C66.1917 58.825 65.1667 59.175 64.1167 59.375C63.0667 59.625 62.0417 59.75 61.0417 59.75C59.1417 59.75 57.4417 59.45 55.9417 58.85C54.4417 58.2 53.1667 57.35 52.1167 56.3C51.1167 55.25 50.3417 54 49.7917 52.55C49.2417 51.1 48.9667 49.55 48.9667 47.9C48.9667 47.25 48.9917 46.2 49.0417 44.75C49.1417 43.25 49.2417 41.575 49.3417 39.725C49.4917 37.875 49.6417 35.925 49.7917 33.875C49.9417 31.775 50.0667 29.8 50.1667 27.95C50.3167 26.1 50.4417 24.475 50.5417 23.075C50.6917 21.675 50.7917 20.675 50.8417 20.075C50.9417 19.175 51.1417 18.575 51.4417 18.275C51.7417 17.925 52.2417 17.75 52.9417 17.75H55.3417C56.8917 17.75 58.1667 17.9 59.1667 18.2C60.1667 18.5 60.9417 18.925 61.4917 19.475C62.0917 20.025 62.4917 20.7 62.6917 21.5C62.9417 22.25 63.0667 23.125 63.0667 24.125Z"/>
<path d="M130.837 52.925C130.837 53.175 130.712 53.675 130.462 54.425C130.212 55.175 129.812 55.95 129.262 56.75C128.712 57.55 128.012 58.25 127.162 58.85C126.362 59.45 125.387 59.75 124.237 59.75C122.887 59.75 121.537 59.3 120.187 58.4C118.887 57.5 117.587 56.275 116.287 54.725C114.987 53.175 113.662 51.35 112.312 49.25C111.012 47.1 109.687 44.775 108.337 42.275C108.137 44.925 107.937 47.525 107.737 50.075C107.537 52.625 107.337 55.1 107.137 57.5C107.087 58.1 106.962 58.5 106.762 58.7C106.562 58.9 106.137 59 105.487 59H102.787C101.237 59 99.9624 58.85 98.9624 58.55C97.9624 58.2 97.1874 57.725 96.6374 57.125C96.0874 56.525 95.6874 55.775 95.4374 54.875C95.2374 53.925 95.1374 52.85 95.1374 51.65C95.1374 51.05 95.1624 50.425 95.2124 49.775C95.2624 49.125 95.3374 48.2 95.4374 47C95.5374 45.8 95.6624 44.225 95.8124 42.275C96.0124 40.325 96.2374 37.75 96.4874 34.55C96.7374 31.35 97.0124 27.425 97.3124 22.775C97.6624 18.075 98.0374 12.375 98.4374 5.67501C98.4874 4.57501 98.6124 3.92501 98.8124 3.72501C98.9624 3.57501 99.3624 3.50001 100.012 3.50001H102.937C104.487 3.50001 105.762 3.67501 106.762 4.02501C107.762 4.37501 108.562 4.85001 109.162 5.45001C109.762 6.05001 110.162 6.75001 110.362 7.55001C110.612 8.35001 110.737 9.17501 110.737 10.025C110.737 10.525 110.687 11.375 110.587 12.575C110.537 13.725 110.462 15.15 110.362 16.85C110.262 18.5 110.112 20.375 109.912 22.475C109.762 24.575 109.612 26.775 109.462 29.075L121.462 18.125C121.912 17.725 122.312 17.45 122.662 17.3C123.062 17.15 123.362 17.075 123.562 17.075C124.112 17.075 124.712 17.425 125.362 18.125C126.012 18.825 126.612 19.65 127.162 20.6C127.762 21.5 128.237 22.45 128.587 23.45C128.987 24.4 129.187 25.175 129.187 25.775C129.187 27.225 128.012 28.75 125.662 30.35C123.362 31.95 119.862 33.75 115.162 35.75C117.262 38.1 119.262 40.25 121.162 42.2C123.062 44.15 124.712 45.875 126.112 47.375C127.562 48.875 128.712 50.1 129.562 51.05C130.412 52 130.837 52.625 130.837 52.925Z"/>
<path d="M144.867 59C143.317 59 142.042 58.85 141.042 58.55C140.092 58.2 139.317 57.725 138.717 57.125C138.167 56.525 137.767 55.8 137.517 54.95C137.317 54.05 137.217 53.025 137.217 51.875C137.217 51.125 137.242 50.075 137.292 48.725C137.392 47.325 137.542 45.425 137.742 43.025C137.942 40.575 138.167 37.5 138.417 33.8C138.717 30.05 139.067 25.425 139.467 19.925C139.517 18.825 139.642 18.175 139.842 17.975C139.992 17.825 140.392 17.75 141.042 17.75H143.967C145.517 17.75 146.767 17.9 147.717 18.2C148.717 18.5 149.492 18.95 150.042 19.55C150.642 20.15 151.042 20.875 151.242 21.725C151.492 22.575 151.617 23.525 151.617 24.575C151.617 25.325 151.567 26.45 151.467 27.95C151.367 29.45 151.217 31.5 151.017 34.1C150.867 36.65 150.642 39.85 150.342 43.7C150.042 47.5 149.667 52.1 149.217 57.5C149.167 58.1 149.042 58.5 148.842 58.7C148.642 58.9 148.217 59 147.567 59H144.867ZM139.542 8.90001C139.542 6.90001 140.267 5.32501 141.717 4.17501C143.167 3.02501 145.117 2.45001 147.567 2.45001C149.717 2.45001 151.267 2.90001 152.217 3.80001C153.217 4.65001 153.717 5.80001 153.717 7.25001C153.717 9.10001 153.017 10.65 151.617 11.9C150.267 13.1 148.267 13.7 145.617 13.7C141.567 13.7 139.542 12.1 139.542 8.90001Z"/>
<path d="M165.661 15.35C164.511 15.35 163.561 14.925 162.811 14.075C162.061 13.175 161.686 11.925 161.686 10.325C161.686 9.37501 161.836 8.45001 162.136 7.55001C162.436 6.60001 162.886 5.77501 163.486 5.07501C164.086 4.37501 164.836 3.82501 165.736 3.42501C166.636 2.97501 167.686 2.75001 168.886 2.75001C169.686 2.75001 170.411 2.87501 171.061 3.12501C171.761 3.32501 172.361 3.70001 172.861 4.25001C173.361 4.75001 173.761 5.45001 174.061 6.35001C174.361 7.25001 174.511 8.40001 174.511 9.80001C174.511 11.8 174.211 13.75 173.611 15.65C173.011 17.55 172.186 19.25 171.136 20.75C170.136 22.25 168.961 23.45 167.611 24.35C166.311 25.25 164.961 25.7 163.561 25.7C162.411 25.7 161.636 25.45 161.236 24.95C160.886 24.4 160.711 23.775 160.711 23.075C160.711 22.875 160.961 22.525 161.461 22.025C162.011 21.525 162.586 20.95 163.186 20.3C163.786 19.6 164.336 18.825 164.836 17.975C165.386 17.125 165.661 16.25 165.661 15.35Z"/>
<path d="M196.362 17C200.612 17 203.737 17.85 205.737 19.55C207.737 21.2 208.737 23.325 208.737 25.925C208.737 28.125 208.037 29.8 206.637 30.95C205.287 32.1 203.312 32.675 200.712 32.675C200.012 32.675 199.537 32.6 199.287 32.45C199.037 32.3 198.912 32.025 198.912 31.625C198.912 31.175 198.862 30.675 198.762 30.125C198.712 29.525 198.537 28.975 198.237 28.475C197.987 27.925 197.562 27.475 196.962 27.125C196.412 26.775 195.612 26.6 194.562 26.6C193.162 26.6 192.037 26.95 191.187 27.65C190.337 28.3 189.912 29.125 189.912 30.125C189.912 31.175 190.337 32.025 191.187 32.675C192.087 33.275 193.187 33.85 194.487 34.4C195.837 34.95 197.287 35.525 198.837 36.125C200.387 36.675 201.812 37.425 203.112 38.375C204.462 39.325 205.562 40.525 206.412 41.975C207.312 43.375 207.762 45.2 207.762 47.45C207.762 51.05 206.487 54 203.937 56.3C201.387 58.6 197.562 59.75 192.462 59.75C191.062 59.75 189.437 59.625 187.587 59.375C185.787 59.175 184.062 58.85 182.412 58.4C180.762 57.9 179.362 57.25 178.212 56.45C177.112 55.65 176.562 54.65 176.562 53.45C176.562 53 176.637 52.45 176.787 51.8C176.987 51.15 177.262 50.525 177.612 49.925C178.012 49.325 178.462 48.825 178.962 48.425C179.512 47.975 180.162 47.75 180.912 47.75C181.512 47.75 182.062 47.9 182.562 48.2C183.062 48.5 183.637 48.825 184.287 49.175C184.987 49.475 185.837 49.775 186.837 50.075C187.837 50.375 189.162 50.525 190.812 50.525C192.062 50.525 193.162 50.375 194.112 50.075C195.112 49.775 195.612 49.1 195.612 48.05C195.612 47.1 195.212 46.35 194.412 45.8C193.612 45.2 192.587 44.65 191.337 44.15C190.137 43.65 188.812 43.125 187.362 42.575C185.962 41.975 184.637 41.2 183.387 40.25C182.187 39.3 181.187 38.1 180.387 36.65C179.587 35.15 179.187 33.225 179.187 30.875C179.187 28.325 179.687 26.175 180.687 24.425C181.737 22.625 183.062 21.175 184.662 20.075C186.312 18.975 188.162 18.2 190.212 17.75C192.262 17.25 194.312 17 196.362 17Z"/>
<path d="M256.48 48.05C258.53 48.05 260.255 47.75 261.655 47.15C263.105 46.55 264.33 45.875 265.33 45.125C266.33 44.375 267.205 43.7 267.955 43.1C268.755 42.5 269.555 42.2 270.355 42.2C271.355 42.2 271.855 42.95 271.855 44.45C271.855 45.25 271.755 46.225 271.555 47.375C271.355 48.475 271.08 49.725 270.73 51.125C270.53 51.975 270.03 52.9 269.23 53.9C268.48 54.9 267.43 55.85 266.08 56.75C264.73 57.6 263.055 58.325 261.055 58.925C259.105 59.475 256.855 59.75 254.305 59.75C251.755 59.75 249.205 59.375 246.655 58.625C244.105 57.875 241.83 56.6 239.83 54.8C237.83 53 236.205 50.575 234.955 47.525C233.705 44.475 233.08 40.65 233.08 36.05C233.08 34.4 233.18 32.5 233.38 30.35C233.63 28.15 234.08 25.9 234.73 23.6C235.38 21.3 236.28 19.05 237.43 16.85C238.63 14.6 240.155 12.6 242.005 10.85C243.855 9.10001 246.105 7.70001 248.755 6.65001C251.455 5.55001 254.655 5.00001 258.355 5.00001C261.305 5.00001 263.855 5.35001 266.005 6.05001C268.205 6.75001 270.005 7.72501 271.405 8.97501C272.855 10.175 273.905 11.6 274.555 13.25C275.255 14.9 275.605 16.65 275.605 18.5C275.605 21.7 274.655 24.05 272.755 25.55C270.905 27 268.255 27.725 264.805 27.725C263.705 27.725 263.005 27.65 262.705 27.5C262.455 27.3 262.33 26.925 262.33 26.375C262.28 24.675 262.23 23.2 262.18 21.95C262.13 20.7 261.955 19.675 261.655 18.875C261.355 18.025 260.88 17.425 260.23 17.075C259.63 16.675 258.78 16.475 257.68 16.475C256.08 16.475 254.705 16.825 253.555 17.525C252.455 18.175 251.505 19.05 250.705 20.15C249.955 21.2 249.33 22.4 248.83 23.75C248.38 25.1 248.005 26.475 247.705 27.875C247.455 29.275 247.28 30.625 247.18 31.925C247.13 33.225 247.105 34.35 247.105 35.3C247.105 39.9 247.855 43.175 249.355 45.125C250.905 47.075 253.28 48.05 256.48 48.05Z"/>
<path d="M305.244 35.675C304.944 35.675 304.594 35.675 304.194 35.675C303.844 35.625 303.494 35.575 303.144 35.525C302.794 35.425 302.494 35.325 302.244 35.225C301.994 35.075 301.869 34.9 301.869 34.7C301.869 34.05 301.894 33.45 301.944 32.9C301.994 32.35 302.019 31.775 302.019 31.175C302.019 30.075 301.869 29.175 301.569 28.475C301.269 27.775 300.669 27.425 299.769 27.425C298.369 27.425 297.194 28.35 296.244 30.2C295.344 32 294.769 34.725 294.519 38.375C294.419 39.975 294.269 41.8 294.069 43.85C293.919 45.85 293.769 47.8 293.619 49.7C293.469 51.55 293.344 53.2 293.244 54.65C293.144 56.1 293.094 57.05 293.094 57.5C293.094 58 292.919 58.375 292.569 58.625C292.219 58.875 291.844 59 291.444 59H288.744C287.194 59 285.919 58.85 284.919 58.55C283.969 58.2 283.194 57.725 282.594 57.125C282.044 56.525 281.644 55.8 281.394 54.95C281.194 54.05 281.094 53.025 281.094 51.875C281.094 51.125 281.119 50.075 281.169 48.725C281.269 47.325 281.419 45.425 281.619 43.025C281.819 40.575 282.044 37.5 282.294 33.8C282.594 30.05 282.944 25.425 283.344 19.925C283.444 18.475 283.969 17.75 284.919 17.75H287.844C289.244 17.75 290.419 17.9 291.369 18.2C292.319 18.5 293.094 18.925 293.694 19.475C294.294 19.975 294.719 20.575 294.969 21.275C295.269 21.975 295.469 22.7 295.569 23.45C296.169 22.3 296.869 21.325 297.669 20.525C298.519 19.675 299.394 19 300.294 18.5C301.194 17.95 302.119 17.575 303.069 17.375C304.019 17.125 304.894 17 305.694 17C306.644 17 307.594 17.175 308.544 17.525C309.544 17.875 310.444 18.4 311.244 19.1C312.044 19.8 312.669 20.7 313.119 21.8C313.619 22.9 313.869 24.2 313.869 25.7C313.869 27.05 313.669 28.325 313.269 29.525C312.869 30.725 312.294 31.8 311.544 32.75C310.794 33.65 309.869 34.375 308.769 34.925C307.719 35.425 306.544 35.675 305.244 35.675Z"/>
<path d="M335.733 59.75C333.533 59.75 331.333 59.475 329.133 58.925C326.983 58.375 325.033 57.425 323.283 56.075C321.583 54.725 320.183 52.925 319.083 50.675C317.983 48.425 317.433 45.6 317.433 42.2C317.433 40.95 317.533 39.45 317.733 37.7C317.933 35.95 318.308 34.15 318.858 32.3C319.458 30.45 320.258 28.625 321.258 26.825C322.308 24.975 323.658 23.325 325.308 21.875C326.958 20.425 328.958 19.25 331.308 18.35C333.658 17.45 336.458 17 339.708 17C342.308 17 344.508 17.3 346.308 17.9C348.108 18.5 349.558 19.325 350.658 20.375C351.758 21.375 352.558 22.55 353.058 23.9C353.558 25.25 353.808 26.7 353.808 28.25C353.808 30.55 353.333 32.5 352.383 34.1C351.483 35.7 350.283 37.05 348.783 38.15C347.333 39.2 345.708 40.025 343.908 40.625C342.108 41.225 340.333 41.7 338.583 42.05C336.833 42.35 335.208 42.55 333.708 42.65C332.258 42.7 331.133 42.725 330.333 42.725C330.333 43.675 330.458 44.625 330.708 45.575C331.008 46.475 331.433 47.275 331.983 47.975C332.533 48.675 333.258 49.25 334.158 49.7C335.058 50.15 336.158 50.375 337.458 50.375C338.758 50.375 339.758 50.175 340.458 49.775C341.208 49.325 341.808 48.85 342.258 48.35C342.708 47.8 343.083 47.325 343.383 46.925C343.733 46.475 344.183 46.25 344.733 46.25C344.983 46.25 345.408 46.325 346.008 46.475C346.658 46.575 347.308 46.825 347.958 47.225C348.608 47.625 349.183 48.175 349.683 48.875C350.183 49.575 350.433 50.475 350.433 51.575C350.433 53.025 349.983 54.275 349.083 55.325C348.183 56.375 347.008 57.225 345.558 57.875C344.158 58.525 342.583 59 340.833 59.3C339.083 59.6 337.383 59.75 335.733 59.75ZM337.158 26.975C336.058 26.975 335.108 27.3 334.308 27.95C333.558 28.55 332.908 29.325 332.358 30.275C331.858 31.225 331.458 32.275 331.158 33.425C330.908 34.575 330.708 35.675 330.558 36.725C333.658 36.675 336.158 36.15 338.058 35.15C340.008 34.15 340.983 32.725 340.983 30.875C340.983 29.875 340.658 28.975 340.008 28.175C339.408 27.375 338.458 26.975 337.158 26.975Z"/>
<path d="M357.575 49.775C357.575 45.275 359.6 41.75 363.65 39.2C367.7 36.65 373.675 35.275 381.575 35.075C381.625 34.525 381.65 34.075 381.65 33.725C381.7 33.325 381.725 32.85 381.725 32.3C381.725 30.7 381.425 29.425 380.825 28.475C380.225 27.525 378.975 27.05 377.075 27.05C376.025 27.05 375.175 27.2 374.525 27.5C373.875 27.8 373.35 28.225 372.95 28.775C372.55 29.275 372.225 29.9 371.975 30.65C371.725 31.4 371.5 32.225 371.3 33.125C371.2 33.575 370.975 33.875 370.625 34.025C370.275 34.125 369.725 34.175 368.975 34.175C363.875 34.175 361.325 32.25 361.325 28.4C361.325 26.85 361.675 25.375 362.375 23.975C363.125 22.575 364.2 21.375 365.6 20.375C367.05 19.325 368.85 18.5 371 17.9C373.15 17.3 375.65 17 378.5 17C384.05 17 388.075 18.15 390.575 20.45C393.075 22.75 394.325 26 394.325 30.2C394.325 30.75 394.25 31.75 394.1 33.2C394 34.6 393.85 36.1 393.65 37.7C393.5 39.25 393.35 40.725 393.2 42.125C393.1 43.525 393.05 44.5 393.05 45.05C393.05 46.3 393.275 47.2 393.725 47.75C394.175 48.25 394.675 48.6 395.225 48.8C395.825 49 396.35 49.15 396.8 49.25C397.25 49.35 397.475 49.6 397.475 50C397.475 51.1 397.325 52.225 397.025 53.375C396.725 54.525 396.225 55.575 395.525 56.525C394.875 57.475 393.95 58.25 392.75 58.85C391.6 59.45 390.175 59.75 388.475 59.75C386.075 59.75 384.275 59.175 383.075 58.025C381.875 56.875 381.075 55.275 380.675 53.225C379.475 54.975 377.9 56.5 375.95 57.8C374.05 59.1 371.55 59.75 368.45 59.75C366.95 59.75 365.525 59.575 364.175 59.225C362.875 58.875 361.725 58.3 360.725 57.5C359.775 56.7 359 55.675 358.4 54.425C357.85 53.125 357.575 51.575 357.575 49.775ZM380.9 41.225C379.6 41.225 378.325 41.325 377.075 41.525C375.825 41.725 374.7 42.05 373.7 42.5C372.75 42.9 371.975 43.45 371.375 44.15C370.775 44.85 370.475 45.7 370.475 46.7C370.475 47.85 370.825 48.65 371.525 49.1C372.275 49.55 373.075 49.775 373.925 49.775C374.725 49.775 375.525 49.6 376.325 49.25C377.125 48.9 377.825 48.375 378.425 47.675C379.075 46.925 379.625 46.025 380.075 44.975C380.525 43.925 380.8 42.675 380.9 41.225Z"/>
<path d="M419.71 27.875C419.56 29.775 419.385 31.65 419.185 33.5C419.035 35.35 418.885 37.1 418.735 38.75C418.585 40.4 418.46 41.875 418.36 43.175C418.31 44.475 418.285 45.475 418.285 46.175C418.285 47.475 418.435 48.35 418.735 48.8C419.035 49.2 419.535 49.4 420.235 49.4C420.785 49.4 421.26 49.3 421.66 49.1C422.06 48.9 422.435 48.675 422.785 48.425C423.135 48.175 423.435 47.95 423.685 47.75C423.985 47.55 424.31 47.45 424.66 47.45C425.01 47.45 425.335 47.65 425.635 48.05C425.935 48.45 426.085 49.375 426.085 50.825C426.085 53.575 425.335 55.75 423.835 57.35C422.335 58.95 419.76 59.75 416.11 59.75C412.51 59.75 409.835 58.925 408.085 57.275C406.385 55.575 405.535 53 405.535 49.55C405.535 48.8 405.56 47.925 405.61 46.925C405.71 45.875 405.835 44.525 405.985 42.875C406.135 41.225 406.31 39.2 406.51 36.8C406.76 34.4 407.01 31.425 407.26 27.875H403.285C402.885 27.875 402.635 27.8 402.535 27.65C402.485 27.45 402.46 27.175 402.46 26.825L402.685 23C402.735 22.35 402.81 21.725 402.91 21.125C403.06 20.475 403.31 19.9 403.66 19.4C404.06 18.9 404.61 18.5 405.31 18.2C406.01 17.9 406.935 17.75 408.085 17.75C408.435 16.85 408.835 15.775 409.285 14.525C409.735 13.275 410.185 12.075 410.635 10.925C411.085 9.72501 411.51 8.72501 411.91 7.92501C412.36 7.12501 412.76 6.72501 413.11 6.72501H415.285C417.385 6.72501 418.835 7.37501 419.635 8.67501C420.435 9.97501 420.835 11.525 420.835 13.325C420.835 14.325 420.76 15.8 420.61 17.75H428.485C429.285 17.75 429.685 18.1 429.685 18.8L429.385 22.85C429.285 24.35 428.86 25.575 428.11 26.525C427.41 27.425 425.935 27.875 423.685 27.875H419.71Z"/>
<path d="M442.767 59C441.217 59 439.941 58.85 438.941 58.55C437.991 58.2 437.217 57.725 436.617 57.125C436.067 56.525 435.667 55.8 435.417 54.95C435.217 54.05 435.117 53.025 435.117 51.875C435.117 51.125 435.141 50.075 435.191 48.725C435.291 47.325 435.442 45.425 435.642 43.025C435.842 40.575 436.066 37.5 436.316 33.8C436.616 30.05 436.967 25.425 437.367 19.925C437.417 18.825 437.542 18.175 437.742 17.975C437.892 17.825 438.291 17.75 438.941 17.75H441.867C443.417 17.75 444.667 17.9 445.617 18.2C446.617 18.5 447.391 18.95 447.941 19.55C448.541 20.15 448.942 20.875 449.142 21.725C449.392 22.575 449.517 23.525 449.517 24.575C449.517 25.325 449.467 26.45 449.367 27.95C449.267 29.45 449.117 31.5 448.917 34.1C448.767 36.65 448.542 39.85 448.242 43.7C447.942 47.5 447.567 52.1 447.117 57.5C447.067 58.1 446.942 58.5 446.742 58.7C446.542 58.9 446.116 59 445.466 59H442.767ZM437.441 8.90001C437.441 6.90001 438.167 5.32501 439.617 4.17501C441.067 3.02501 443.016 2.45001 445.466 2.45001C447.616 2.45001 449.167 2.90001 450.117 3.80001C451.117 4.65001 451.617 5.80001 451.617 7.25001C451.617 9.10001 450.917 10.65 449.517 11.9C448.167 13.1 446.167 13.7 443.517 13.7C439.467 13.7 437.441 12.1 437.441 8.90001Z"/>
<path d="M474.435 59.75C470.985 59.75 468.11 59.275 465.81 58.325C463.56 57.325 461.76 55.975 460.41 54.275C459.06 52.575 458.11 50.6 457.56 48.35C457.01 46.05 456.735 43.6 456.735 41C456.735 38 457.085 35.075 457.785 32.225C458.535 29.325 459.785 26.75 461.535 24.5C463.285 22.25 465.585 20.45 468.435 19.1C471.335 17.7 474.935 17 479.235 17C485.535 17 490.035 18.55 492.735 21.65C495.485 24.7 496.86 29 496.86 34.55C496.86 36.1 496.735 37.825 496.485 39.725C496.285 41.575 495.86 43.425 495.21 45.275C494.61 47.125 493.76 48.925 492.66 50.675C491.61 52.425 490.26 53.975 488.61 55.325C486.96 56.675 484.96 57.75 482.61 58.55C480.31 59.35 477.585 59.75 474.435 59.75ZM477.96 26.975C476.06 26.975 474.535 27.475 473.385 28.475C472.285 29.425 471.435 30.6 470.835 32C470.285 33.35 469.91 34.8 469.71 36.35C469.56 37.85 469.485 39.125 469.485 40.175C469.485 43.475 470.01 45.9 471.06 47.45C472.11 49 473.61 49.775 475.56 49.775C477.31 49.775 478.735 49.225 479.835 48.125C480.985 47.025 481.86 45.7 482.46 44.15C483.11 42.6 483.535 40.975 483.735 39.275C483.985 37.575 484.11 36.15 484.11 35C484.11 32.5 483.635 30.55 482.685 29.15C481.785 27.7 480.21 26.975 477.96 26.975Z"/>
<path d="M529.534 52.4C529.534 51.3 529.609 49.875 529.759 48.125C529.959 46.325 530.134 44.45 530.284 42.5C530.484 40.5 530.659 38.575 530.809 36.725C531.009 34.875 531.109 33.325 531.109 32.075C531.109 30.775 530.784 29.625 530.134 28.625C529.534 27.575 528.334 27.05 526.534 27.05C524.784 27.05 523.334 27.475 522.184 28.325C521.034 29.175 520.059 30.725 519.259 32.975C518.509 35.225 517.884 38.325 517.384 42.275C516.884 46.225 516.409 51.3 515.959 57.5C515.909 58.1 515.784 58.5 515.584 58.7C515.384 58.9 514.959 59 514.309 59H511.609C510.059 59 508.784 58.85 507.784 58.55C506.834 58.2 506.059 57.725 505.459 57.125C504.909 56.525 504.509 55.8 504.259 54.95C504.059 54.05 503.959 53.025 503.959 51.875C503.959 51.125 503.984 50.075 504.034 48.725C504.134 47.325 504.284 45.425 504.484 43.025C504.684 40.575 504.909 37.5 505.159 33.8C505.459 30.05 505.809 25.425 506.209 19.925C506.259 18.825 506.384 18.175 506.584 17.975C506.734 17.825 507.134 17.75 507.784 17.75H510.709C512.209 17.75 513.434 17.925 514.384 18.275C515.384 18.625 516.184 19.1 516.784 19.7C517.384 20.25 517.809 20.925 518.059 21.725C518.309 22.475 518.459 23.25 518.509 24.05C520.059 21.4 521.834 19.575 523.834 18.575C525.834 17.525 528.334 17 531.334 17C533.434 17 535.259 17.225 536.809 17.675C538.359 18.125 539.634 18.9 540.634 20C541.684 21.05 542.459 22.45 542.959 24.2C543.459 25.9 543.709 28.025 543.709 30.575C543.709 31.375 543.659 32.525 543.559 34.025C543.459 35.525 543.334 37.175 543.184 38.975C543.034 40.725 542.859 42.575 542.659 44.525C542.509 46.425 542.359 48.2 542.209 49.85C542.059 51.5 541.934 52.95 541.834 54.2C541.734 55.45 541.684 56.275 541.684 56.675C541.684 57.775 541.559 58.45 541.309 58.7C541.059 58.9 540.509 59 539.659 59H537.259C535.659 59 534.359 58.85 533.359 58.55C532.359 58.25 531.584 57.825 531.034 57.275C530.484 56.725 530.084 56.05 529.834 55.25C529.634 54.4 529.534 53.45 529.534 52.4Z"/>
<path d="M569.37 17C573.62 17 576.745 17.85 578.745 19.55C580.745 21.2 581.745 23.325 581.745 25.925C581.745 28.125 581.045 29.8 579.645 30.95C578.295 32.1 576.32 32.675 573.72 32.675C573.02 32.675 572.545 32.6 572.295 32.45C572.045 32.3 571.92 32.025 571.92 31.625C571.92 31.175 571.87 30.675 571.77 30.125C571.72 29.525 571.545 28.975 571.245 28.475C570.995 27.925 570.57 27.475 569.97 27.125C569.42 26.775 568.62 26.6 567.57 26.6C566.17 26.6 565.045 26.95 564.195 27.65C563.345 28.3 562.92 29.125 562.92 30.125C562.92 31.175 563.345 32.025 564.195 32.675C565.095 33.275 566.195 33.85 567.495 34.4C568.845 34.95 570.295 35.525 571.845 36.125C573.395 36.675 574.82 37.425 576.12 38.375C577.47 39.325 578.57 40.525 579.42 41.975C580.32 43.375 580.77 45.2 580.77 47.45C580.77 51.05 579.495 54 576.945 56.3C574.395 58.6 570.57 59.75 565.47 59.75C564.07 59.75 562.445 59.625 560.595 59.375C558.795 59.175 557.07 58.85 555.42 58.4C553.77 57.9 552.37 57.25 551.22 56.45C550.12 55.65 549.57 54.65 549.57 53.45C549.57 53 549.645 52.45 549.795 51.8C549.995 51.15 550.27 50.525 550.62 49.925C551.02 49.325 551.47 48.825 551.97 48.425C552.52 47.975 553.17 47.75 553.92 47.75C554.52 47.75 555.07 47.9 555.57 48.2C556.07 48.5 556.645 48.825 557.295 49.175C557.995 49.475 558.845 49.775 559.845 50.075C560.845 50.375 562.17 50.525 563.82 50.525C565.07 50.525 566.17 50.375 567.12 50.075C568.12 49.775 568.62 49.1 568.62 48.05C568.62 47.1 568.22 46.35 567.42 45.8C566.62 45.2 565.595 44.65 564.345 44.15C563.145 43.65 561.82 43.125 560.37 42.575C558.97 41.975 557.645 41.2 556.395 40.25C555.195 39.3 554.195 38.1 553.395 36.65C552.595 35.15 552.195 33.225 552.195 30.875C552.195 28.325 552.695 26.175 553.695 24.425C554.745 22.625 556.07 21.175 557.67 20.075C559.32 18.975 561.17 18.2 563.22 17.75C565.27 17.25 567.32 17 569.37 17Z"/>
</mask>
<path d="M42.8009 54.125C42.8009 54.525 42.5509 55.05 42.0509 55.7C41.6009 56.3 40.9509 56.9 40.1009 57.5C39.3009 58.1 38.3509 58.625 37.2509 59.075C36.2009 59.525 35.0759 59.75 33.8759 59.75C32.0259 59.75 30.4009 59.175 29.0009 58.025C27.6009 56.825 26.3259 55.2 25.1759 53.15C24.0759 51.1 23.0509 48.675 22.1009 45.875C21.1509 43.025 20.1759 39.95 19.1759 36.65L16.3259 38.525L14.9009 57.875C14.8509 58.275 14.7509 58.575 14.6009 58.775C14.4509 58.925 14.1509 59 13.7009 59H9.57588C6.72588 59 4.70088 58.45 3.50088 57.35C2.35088 56.2 1.77588 54.525 1.77588 52.325C1.77588 51.625 1.80088 50.575 1.85088 49.175C1.95088 47.725 2.07588 46.05 2.22588 44.15C2.37588 42.2 2.52588 40.075 2.67588 37.775C2.87588 35.475 3.07588 33.125 3.27588 30.725C3.62588 25.925 3.90088 22.125 4.10088 19.325C4.35088 16.525 4.52588 14.325 4.62588 12.725C4.72588 11.075 4.80088 9.87501 4.85088 9.12501C4.90088 8.32501 4.92588 7.57501 4.92588 6.87501C4.92588 6.12501 5.32588 5.75001 6.12588 5.75001H10.2509C11.8509 5.75001 13.1259 5.92501 14.0759 6.27501C15.0759 6.57501 15.8509 7.02501 16.4009 7.62501C16.9509 8.22501 17.3259 8.97501 17.5259 9.87501C17.7259 10.725 17.8259 11.725 17.8259 12.875C17.8259 14.025 17.7509 15.9 17.6009 18.5C17.5009 21.05 17.3259 23.925 17.0759 27.125C18.7759 25.025 20.8009 22.425 23.1509 19.325C25.5509 16.225 28.4509 12.4 31.8509 7.85001C32.0009 7.65001 32.2009 7.40001 32.4509 7.10001C32.7509 6.75001 33.0509 6.42501 33.3509 6.12501C33.7009 5.82501 34.0509 5.57501 34.4009 5.37501C34.8009 5.12501 35.1759 5.00001 35.5259 5.00001C36.1759 5.00001 36.9259 5.35001 37.7759 6.05001C38.6259 6.70001 39.4259 7.52501 40.1759 8.52501C40.9259 9.47501 41.5509 10.475 42.0509 11.525C42.6009 12.525 42.8759 13.375 42.8759 14.075C42.8759 15.525 41.5759 17.7 38.9759 20.6C36.3759 23.45 32.6509 26.75 27.8009 30.5C28.6509 31.95 29.6259 33.525 30.7259 35.225C31.8259 36.875 32.9259 38.575 34.0259 40.325C35.1259 42.025 36.2009 43.7 37.2509 45.35C38.3009 46.95 39.2259 48.4 40.0259 49.7C40.8759 50.95 41.5509 51.975 42.0509 52.775C42.5509 53.575 42.8009 54.025 42.8009 54.125Z" fill="url(#paint0_linear_331_26)"/>
<path d="M63.0667 24.125C63.0667 25.175 62.9667 26.65 62.7667 28.55C62.6167 30.45 62.4417 32.425 62.2417 34.475C62.0917 36.525 61.9167 38.45 61.7167 40.25C61.5667 42.05 61.4917 43.35 61.4917 44.15C61.4917 45.9 61.9167 47.275 62.7667 48.275C63.6667 49.225 64.8917 49.7 66.4417 49.7C67.7917 49.7 68.9167 49.175 69.8167 48.125C70.7667 47.025 71.5167 45.625 72.0667 43.925C72.6667 42.175 73.1417 40.2 73.4917 38C73.8417 35.8 74.0917 33.575 74.2417 31.325C74.4417 29.075 74.5917 26.9 74.6917 24.8C74.8417 22.65 74.9917 20.8 75.1417 19.25C75.1917 18.85 75.3417 18.5 75.5917 18.2C75.8417 17.9 76.2417 17.75 76.7917 17.75H79.4917C81.0417 17.75 82.2917 17.925 83.2417 18.275C84.2417 18.575 85.0167 19.025 85.5667 19.625C86.1667 20.225 86.5667 20.975 86.7667 21.875C87.0167 22.725 87.1417 23.725 87.1417 24.875C87.1417 25.625 87.0917 26.7 86.9917 28.1C86.9417 29.45 86.8167 31.35 86.6167 33.8C86.4167 36.2 86.1667 39.275 85.8667 43.025C85.6167 46.725 85.2917 51.325 84.8917 56.825C84.7917 57.875 84.6667 58.5 84.5167 58.7C84.4167 58.9 84.0167 59 83.3167 59H80.3917C78.8917 59 77.6417 58.825 76.6417 58.475C75.6917 58.125 74.9167 57.675 74.3167 57.125C73.7167 56.575 73.2917 55.925 73.0417 55.175C72.7917 54.425 72.6417 53.65 72.5917 52.85C71.8417 54.15 70.9917 55.25 70.0417 56.15C69.1417 57.05 68.1917 57.775 67.1917 58.325C66.1917 58.825 65.1667 59.175 64.1167 59.375C63.0667 59.625 62.0417 59.75 61.0417 59.75C59.1417 59.75 57.4417 59.45 55.9417 58.85C54.4417 58.2 53.1667 57.35 52.1167 56.3C51.1167 55.25 50.3417 54 49.7917 52.55C49.2417 51.1 48.9667 49.55 48.9667 47.9C48.9667 47.25 48.9917 46.2 49.0417 44.75C49.1417 43.25 49.2417 41.575 49.3417 39.725C49.4917 37.875 49.6417 35.925 49.7917 33.875C49.9417 31.775 50.0667 29.8 50.1667 27.95C50.3167 26.1 50.4417 24.475 50.5417 23.075C50.6917 21.675 50.7917 20.675 50.8417 20.075C50.9417 19.175 51.1417 18.575 51.4417 18.275C51.7417 17.925 52.2417 17.75 52.9417 17.75H55.3417C56.8917 17.75 58.1667 17.9 59.1667 18.2C60.1667 18.5 60.9417 18.925 61.4917 19.475C62.0917 20.025 62.4917 20.7 62.6917 21.5C62.9417 22.25 63.0667 23.125 63.0667 24.125Z" fill="url(#paint1_linear_331_26)"/>
<path d="M130.837 52.925C130.837 53.175 130.712 53.675 130.462 54.425C130.212 55.175 129.812 55.95 129.262 56.75C128.712 57.55 128.012 58.25 127.162 58.85C126.362 59.45 125.387 59.75 124.237 59.75C122.887 59.75 121.537 59.3 120.187 58.4C118.887 57.5 117.587 56.275 116.287 54.725C114.987 53.175 113.662 51.35 112.312 49.25C111.012 47.1 109.687 44.775 108.337 42.275C108.137 44.925 107.937 47.525 107.737 50.075C107.537 52.625 107.337 55.1 107.137 57.5C107.087 58.1 106.962 58.5 106.762 58.7C106.562 58.9 106.137 59 105.487 59H102.787C101.237 59 99.9624 58.85 98.9624 58.55C97.9624 58.2 97.1874 57.725 96.6374 57.125C96.0874 56.525 95.6874 55.775 95.4374 54.875C95.2374 53.925 95.1374 52.85 95.1374 51.65C95.1374 51.05 95.1624 50.425 95.2124 49.775C95.2624 49.125 95.3374 48.2 95.4374 47C95.5374 45.8 95.6624 44.225 95.8124 42.275C96.0124 40.325 96.2374 37.75 96.4874 34.55C96.7374 31.35 97.0124 27.425 97.3124 22.775C97.6624 18.075 98.0374 12.375 98.4374 5.67501C98.4874 4.57501 98.6124 3.92501 98.8124 3.72501C98.9624 3.57501 99.3624 3.50001 100.012 3.50001H102.937C104.487 3.50001 105.762 3.67501 106.762 4.02501C107.762 4.37501 108.562 4.85001 109.162 5.45001C109.762 6.05001 110.162 6.75001 110.362 7.55001C110.612 8.35001 110.737 9.17501 110.737 10.025C110.737 10.525 110.687 11.375 110.587 12.575C110.537 13.725 110.462 15.15 110.362 16.85C110.262 18.5 110.112 20.375 109.912 22.475C109.762 24.575 109.612 26.775 109.462 29.075L121.462 18.125C121.912 17.725 122.312 17.45 122.662 17.3C123.062 17.15 123.362 17.075 123.562 17.075C124.112 17.075 124.712 17.425 125.362 18.125C126.012 18.825 126.612 19.65 127.162 20.6C127.762 21.5 128.237 22.45 128.587 23.45C128.987 24.4 129.187 25.175 129.187 25.775C129.187 27.225 128.012 28.75 125.662 30.35C123.362 31.95 119.862 33.75 115.162 35.75C117.262 38.1 119.262 40.25 121.162 42.2C123.062 44.15 124.712 45.875 126.112 47.375C127.562 48.875 128.712 50.1 129.562 51.05C130.412 52 130.837 52.625 130.837 52.925Z" fill="url(#paint2_linear_331_26)"/>
<path d="M144.867 59C143.317 59 142.042 58.85 141.042 58.55C140.092 58.2 139.317 57.725 138.717 57.125C138.167 56.525 137.767 55.8 137.517 54.95C137.317 54.05 137.217 53.025 137.217 51.875C137.217 51.125 137.242 50.075 137.292 48.725C137.392 47.325 137.542 45.425 137.742 43.025C137.942 40.575 138.167 37.5 138.417 33.8C138.717 30.05 139.067 25.425 139.467 19.925C139.517 18.825 139.642 18.175 139.842 17.975C139.992 17.825 140.392 17.75 141.042 17.75H143.967C145.517 17.75 146.767 17.9 147.717 18.2C148.717 18.5 149.492 18.95 150.042 19.55C150.642 20.15 151.042 20.875 151.242 21.725C151.492 22.575 151.617 23.525 151.617 24.575C151.617 25.325 151.567 26.45 151.467 27.95C151.367 29.45 151.217 31.5 151.017 34.1C150.867 36.65 150.642 39.85 150.342 43.7C150.042 47.5 149.667 52.1 149.217 57.5C149.167 58.1 149.042 58.5 148.842 58.7C148.642 58.9 148.217 59 147.567 59H144.867ZM139.542 8.90001C139.542 6.90001 140.267 5.32501 141.717 4.17501C143.167 3.02501 145.117 2.45001 147.567 2.45001C149.717 2.45001 151.267 2.90001 152.217 3.80001C153.217 4.65001 153.717 5.80001 153.717 7.25001C153.717 9.10001 153.017 10.65 151.617 11.9C150.267 13.1 148.267 13.7 145.617 13.7C141.567 13.7 139.542 12.1 139.542 8.90001Z" fill="url(#paint3_linear_331_26)"/>
<path d="M165.661 15.35C164.511 15.35 163.561 14.925 162.811 14.075C162.061 13.175 161.686 11.925 161.686 10.325C161.686 9.37501 161.836 8.45001 162.136 7.55001C162.436 6.60001 162.886 5.77501 163.486 5.07501C164.086 4.37501 164.836 3.82501 165.736 3.42501C166.636 2.97501 167.686 2.75001 168.886 2.75001C169.686 2.75001 170.411 2.87501 171.061 3.12501C171.761 3.32501 172.361 3.70001 172.861 4.25001C173.361 4.75001 173.761 5.45001 174.061 6.35001C174.361 7.25001 174.511 8.40001 174.511 9.80001C174.511 11.8 174.211 13.75 173.611 15.65C173.011 17.55 172.186 19.25 171.136 20.75C170.136 22.25 168.961 23.45 167.611 24.35C166.311 25.25 164.961 25.7 163.561 25.7C162.411 25.7 161.636 25.45 161.236 24.95C160.886 24.4 160.711 23.775 160.711 23.075C160.711 22.875 160.961 22.525 161.461 22.025C162.011 21.525 162.586 20.95 163.186 20.3C163.786 19.6 164.336 18.825 164.836 17.975C165.386 17.125 165.661 16.25 165.661 15.35Z" fill="url(#paint4_linear_331_26)"/>
<path d="M196.362 17C200.612 17 203.737 17.85 205.737 19.55C207.737 21.2 208.737 23.325 208.737 25.925C208.737 28.125 208.037 29.8 206.637 30.95C205.287 32.1 203.312 32.675 200.712 32.675C200.012 32.675 199.537 32.6 199.287 32.45C199.037 32.3 198.912 32.025 198.912 31.625C198.912 31.175 198.862 30.675 198.762 30.125C198.712 29.525 198.537 28.975 198.237 28.475C197.987 27.925 197.562 27.475 196.962 27.125C196.412 26.775 195.612 26.6 194.562 26.6C193.162 26.6 192.037 26.95 191.187 27.65C190.337 28.3 189.912 29.125 189.912 30.125C189.912 31.175 190.337 32.025 191.187 32.675C192.087 33.275 193.187 33.85 194.487 34.4C195.837 34.95 197.287 35.525 198.837 36.125C200.387 36.675 201.812 37.425 203.112 38.375C204.462 39.325 205.562 40.525 206.412 41.975C207.312 43.375 207.762 45.2 207.762 47.45C207.762 51.05 206.487 54 203.937 56.3C201.387 58.6 197.562 59.75 192.462 59.75C191.062 59.75 189.437 59.625 187.587 59.375C185.787 59.175 184.062 58.85 182.412 58.4C180.762 57.9 179.362 57.25 178.212 56.45C177.112 55.65 176.562 54.65 176.562 53.45C176.562 53 176.637 52.45 176.787 51.8C176.987 51.15 177.262 50.525 177.612 49.925C178.012 49.325 178.462 48.825 178.962 48.425C179.512 47.975 180.162 47.75 180.912 47.75C181.512 47.75 182.062 47.9 182.562 48.2C183.062 48.5 183.637 48.825 184.287 49.175C184.987 49.475 185.837 49.775 186.837 50.075C187.837 50.375 189.162 50.525 190.812 50.525C192.062 50.525 193.162 50.375 194.112 50.075C195.112 49.775 195.612 49.1 195.612 48.05C195.612 47.1 195.212 46.35 194.412 45.8C193.612 45.2 192.587 44.65 191.337 44.15C190.137 43.65 188.812 43.125 187.362 42.575C185.962 41.975 184.637 41.2 183.387 40.25C182.187 39.3 181.187 38.1 180.387 36.65C179.587 35.15 179.187 33.225 179.187 30.875C179.187 28.325 179.687 26.175 180.687 24.425C181.737 22.625 183.062 21.175 184.662 20.075C186.312 18.975 188.162 18.2 190.212 17.75C192.262 17.25 194.312 17 196.362 17Z" fill="url(#paint5_linear_331_26)"/>
<path d="M256.48 48.05C258.53 48.05 260.255 47.75 261.655 47.15C263.105 46.55 264.33 45.875 265.33 45.125C266.33 44.375 267.205 43.7 267.955 43.1C268.755 42.5 269.555 42.2 270.355 42.2C271.355 42.2 271.855 42.95 271.855 44.45C271.855 45.25 271.755 46.225 271.555 47.375C271.355 48.475 271.08 49.725 270.73 51.125C270.53 51.975 270.03 52.9 269.23 53.9C268.48 54.9 267.43 55.85 266.08 56.75C264.73 57.6 263.055 58.325 261.055 58.925C259.105 59.475 256.855 59.75 254.305 59.75C251.755 59.75 249.205 59.375 246.655 58.625C244.105 57.875 241.83 56.6 239.83 54.8C237.83 53 236.205 50.575 234.955 47.525C233.705 44.475 233.08 40.65 233.08 36.05C233.08 34.4 233.18 32.5 233.38 30.35C233.63 28.15 234.08 25.9 234.73 23.6C235.38 21.3 236.28 19.05 237.43 16.85C238.63 14.6 240.155 12.6 242.005 10.85C243.855 9.10001 246.105 7.70001 248.755 6.65001C251.455 5.55001 254.655 5.00001 258.355 5.00001C261.305 5.00001 263.855 5.35001 266.005 6.05001C268.205 6.75001 270.005 7.72501 271.405 8.97501C272.855 10.175 273.905 11.6 274.555 13.25C275.255 14.9 275.605 16.65 275.605 18.5C275.605 21.7 274.655 24.05 272.755 25.55C270.905 27 268.255 27.725 264.805 27.725C263.705 27.725 263.005 27.65 262.705 27.5C262.455 27.3 262.33 26.925 262.33 26.375C262.28 24.675 262.23 23.2 262.18 21.95C262.13 20.7 261.955 19.675 261.655 18.875C261.355 18.025 260.88 17.425 260.23 17.075C259.63 16.675 258.78 16.475 257.68 16.475C256.08 16.475 254.705 16.825 253.555 17.525C252.455 18.175 251.505 19.05 250.705 20.15C249.955 21.2 249.33 22.4 248.83 23.75C248.38 25.1 248.005 26.475 247.705 27.875C247.455 29.275 247.28 30.625 247.18 31.925C247.13 33.225 247.105 34.35 247.105 35.3C247.105 39.9 247.855 43.175 249.355 45.125C250.905 47.075 253.28 48.05 256.48 48.05Z" fill="url(#paint6_linear_331_26)"/>
<path d="M305.244 35.675C304.944 35.675 304.594 35.675 304.194 35.675C303.844 35.625 303.494 35.575 303.144 35.525C302.794 35.425 302.494 35.325 302.244 35.225C301.994 35.075 301.869 34.9 301.869 34.7C301.869 34.05 301.894 33.45 301.944 32.9C301.994 32.35 302.019 31.775 302.019 31.175C302.019 30.075 301.869 29.175 301.569 28.475C301.269 27.775 300.669 27.425 299.769 27.425C298.369 27.425 297.194 28.35 296.244 30.2C295.344 32 294.769 34.725 294.519 38.375C294.419 39.975 294.269 41.8 294.069 43.85C293.919 45.85 293.769 47.8 293.619 49.7C293.469 51.55 293.344 53.2 293.244 54.65C293.144 56.1 293.094 57.05 293.094 57.5C293.094 58 292.919 58.375 292.569 58.625C292.219 58.875 291.844 59 291.444 59H288.744C287.194 59 285.919 58.85 284.919 58.55C283.969 58.2 283.194 57.725 282.594 57.125C282.044 56.525 281.644 55.8 281.394 54.95C281.194 54.05 281.094 53.025 281.094 51.875C281.094 51.125 281.119 50.075 281.169 48.725C281.269 47.325 281.419 45.425 281.619 43.025C281.819 40.575 282.044 37.5 282.294 33.8C282.594 30.05 282.944 25.425 283.344 19.925C283.444 18.475 283.969 17.75 284.919 17.75H287.844C289.244 17.75 290.419 17.9 291.369 18.2C292.319 18.5 293.094 18.925 293.694 19.475C294.294 19.975 294.719 20.575 294.969 21.275C295.269 21.975 295.469 22.7 295.569 23.45C296.169 22.3 296.869 21.325 297.669 20.525C298.519 19.675 299.394 19 300.294 18.5C301.194 17.95 302.119 17.575 303.069 17.375C304.019 17.125 304.894 17 305.694 17C306.644 17 307.594 17.175 308.544 17.525C309.544 17.875 310.444 18.4 311.244 19.1C312.044 19.8 312.669 20.7 313.119 21.8C313.619 22.9 313.869 24.2 313.869 25.7C313.869 27.05 313.669 28.325 313.269 29.525C312.869 30.725 312.294 31.8 311.544 32.75C310.794 33.65 309.869 34.375 308.769 34.925C307.719 35.425 306.544 35.675 305.244 35.675Z" fill="url(#paint7_linear_331_26)"/>
<path d="M335.733 59.75C333.533 59.75 331.333 59.475 329.133 58.925C326.983 58.375 325.033 57.425 323.283 56.075C321.583 54.725 320.183 52.925 319.083 50.675C317.983 48.425 317.433 45.6 317.433 42.2C317.433 40.95 317.533 39.45 317.733 37.7C317.933 35.95 318.308 34.15 318.858 32.3C319.458 30.45 320.258 28.625 321.258 26.825C322.308 24.975 323.658 23.325 325.308 21.875C326.958 20.425 328.958 19.25 331.308 18.35C333.658 17.45 336.458 17 339.708 17C342.308 17 344.508 17.3 346.308 17.9C348.108 18.5 349.558 19.325 350.658 20.375C351.758 21.375 352.558 22.55 353.058 23.9C353.558 25.25 353.808 26.7 353.808 28.25C353.808 30.55 353.333 32.5 352.383 34.1C351.483 35.7 350.283 37.05 348.783 38.15C347.333 39.2 345.708 40.025 343.908 40.625C342.108 41.225 340.333 41.7 338.583 42.05C336.833 42.35 335.208 42.55 333.708 42.65C332.258 42.7 331.133 42.725 330.333 42.725C330.333 43.675 330.458 44.625 330.708 45.575C331.008 46.475 331.433 47.275 331.983 47.975C332.533 48.675 333.258 49.25 334.158 49.7C335.058 50.15 336.158 50.375 337.458 50.375C338.758 50.375 339.758 50.175 340.458 49.775C341.208 49.325 341.808 48.85 342.258 48.35C342.708 47.8 343.083 47.325 343.383 46.925C343.733 46.475 344.183 46.25 344.733 46.25C344.983 46.25 345.408 46.325 346.008 46.475C346.658 46.575 347.308 46.825 347.958 47.225C348.608 47.625 349.183 48.175 349.683 48.875C350.183 49.575 350.433 50.475 350.433 51.575C350.433 53.025 349.983 54.275 349.083 55.325C348.183 56.375 347.008 57.225 345.558 57.875C344.158 58.525 342.583 59 340.833 59.3C339.083 59.6 337.383 59.75 335.733 59.75ZM337.158 26.975C336.058 26.975 335.108 27.3 334.308 27.95C333.558 28.55 332.908 29.325 332.358 30.275C331.858 31.225 331.458 32.275 331.158 33.425C330.908 34.575 330.708 35.675 330.558 36.725C333.658 36.675 336.158 36.15 338.058 35.15C340.008 34.15 340.983 32.725 340.983 30.875C340.983 29.875 340.658 28.975 340.008 28.175C339.408 27.375 338.458 26.975 337.158 26.975Z" fill="url(#paint8_linear_331_26)"/>
<path d="M357.575 49.775C357.575 45.275 359.6 41.75 363.65 39.2C367.7 36.65 373.675 35.275 381.575 35.075C381.625 34.525 381.65 34.075 381.65 33.725C381.7 33.325 381.725 32.85 381.725 32.3C381.725 30.7 381.425 29.425 380.825 28.475C380.225 27.525 378.975 27.05 377.075 27.05C376.025 27.05 375.175 27.2 374.525 27.5C373.875 27.8 373.35 28.225 372.95 28.775C372.55 29.275 372.225 29.9 371.975 30.65C371.725 31.4 371.5 32.225 371.3 33.125C371.2 33.575 370.975 33.875 370.625 34.025C370.275 34.125 369.725 34.175 368.975 34.175C363.875 34.175 361.325 32.25 361.325 28.4C361.325 26.85 361.675 25.375 362.375 23.975C363.125 22.575 364.2 21.375 365.6 20.375C367.05 19.325 368.85 18.5 371 17.9C373.15 17.3 375.65 17 378.5 17C384.05 17 388.075 18.15 390.575 20.45C393.075 22.75 394.325 26 394.325 30.2C394.325 30.75 394.25 31.75 394.1 33.2C394 34.6 393.85 36.1 393.65 37.7C393.5 39.25 393.35 40.725 393.2 42.125C393.1 43.525 393.05 44.5 393.05 45.05C393.05 46.3 393.275 47.2 393.725 47.75C394.175 48.25 394.675 48.6 395.225 48.8C395.825 49 396.35 49.15 396.8 49.25C397.25 49.35 397.475 49.6 397.475 50C397.475 51.1 397.325 52.225 397.025 53.375C396.725 54.525 396.225 55.575 395.525 56.525C394.875 57.475 393.95 58.25 392.75 58.85C391.6 59.45 390.175 59.75 388.475 59.75C386.075 59.75 384.275 59.175 383.075 58.025C381.875 56.875 381.075 55.275 380.675 53.225C379.475 54.975 377.9 56.5 375.95 57.8C374.05 59.1 371.55 59.75 368.45 59.75C366.95 59.75 365.525 59.575 364.175 59.225C362.875 58.875 361.725 58.3 360.725 57.5C359.775 56.7 359 55.675 358.4 54.425C357.85 53.125 357.575 51.575 357.575 49.775ZM380.9 41.225C379.6 41.225 378.325 41.325 377.075 41.525C375.825 41.725 374.7 42.05 373.7 42.5C372.75 42.9 371.975 43.45 371.375 44.15C370.775 44.85 370.475 45.7 370.475 46.7C370.475 47.85 370.825 48.65 371.525 49.1C372.275 49.55 373.075 49.775 373.925 49.775C374.725 49.775 375.525 49.6 376.325 49.25C377.125 48.9 377.825 48.375 378.425 47.675C379.075 46.925 379.625 46.025 380.075 44.975C380.525 43.925 380.8 42.675 380.9 41.225Z" fill="url(#paint9_linear_331_26)"/>
<path d="M419.71 27.875C419.56 29.775 419.385 31.65 419.185 33.5C419.035 35.35 418.885 37.1 418.735 38.75C418.585 40.4 418.46 41.875 418.36 43.175C418.31 44.475 418.285 45.475 418.285 46.175C418.285 47.475 418.435 48.35 418.735 48.8C419.035 49.2 419.535 49.4 420.235 49.4C420.785 49.4 421.26 49.3 421.66 49.1C422.06 48.9 422.435 48.675 422.785 48.425C423.135 48.175 423.435 47.95 423.685 47.75C423.985 47.55 424.31 47.45 424.66 47.45C425.01 47.45 425.335 47.65 425.635 48.05C425.935 48.45 426.085 49.375 426.085 50.825C426.085 53.575 425.335 55.75 423.835 57.35C422.335 58.95 419.76 59.75 416.11 59.75C412.51 59.75 409.835 58.925 408.085 57.275C406.385 55.575 405.535 53 405.535 49.55C405.535 48.8 405.56 47.925 405.61 46.925C405.71 45.875 405.835 44.525 405.985 42.875C406.135 41.225 406.31 39.2 406.51 36.8C406.76 34.4 407.01 31.425 407.26 27.875H403.285C402.885 27.875 402.635 27.8 402.535 27.65C402.485 27.45 402.46 27.175 402.46 26.825L402.685 23C402.735 22.35 402.81 21.725 402.91 21.125C403.06 20.475 403.31 19.9 403.66 19.4C404.06 18.9 404.61 18.5 405.31 18.2C406.01 17.9 406.935 17.75 408.085 17.75C408.435 16.85 408.835 15.775 409.285 14.525C409.735 13.275 410.185 12.075 410.635 10.925C411.085 9.72501 411.51 8.72501 411.91 7.92501C412.36 7.12501 412.76 6.72501 413.11 6.72501H415.285C417.385 6.72501 418.835 7.37501 419.635 8.67501C420.435 9.97501 420.835 11.525 420.835 13.325C420.835 14.325 420.76 15.8 420.61 17.75H428.485C429.285 17.75 429.685 18.1 429.685 18.8L429.385 22.85C429.285 24.35 428.86 25.575 428.11 26.525C427.41 27.425 425.935 27.875 423.685 27.875H419.71Z" fill="url(#paint10_linear_331_26)"/>
<path d="M442.767 59C441.217 59 439.941 58.85 438.941 58.55C437.991 58.2 437.217 57.725 436.617 57.125C436.067 56.525 435.667 55.8 435.417 54.95C435.217 54.05 435.117 53.025 435.117 51.875C435.117 51.125 435.141 50.075 435.191 48.725C435.291 47.325 435.442 45.425 435.642 43.025C435.842 40.575 436.066 37.5 436.316 33.8C436.616 30.05 436.967 25.425 437.367 19.925C437.417 18.825 437.542 18.175 437.742 17.975C437.892 17.825 438.291 17.75 438.941 17.75H441.867C443.417 17.75 444.667 17.9 445.617 18.2C446.617 18.5 447.391 18.95 447.941 19.55C448.541 20.15 448.942 20.875 449.142 21.725C449.392 22.575 449.517 23.525 449.517 24.575C449.517 25.325 449.467 26.45 449.367 27.95C449.267 29.45 449.117 31.5 448.917 34.1C448.767 36.65 448.542 39.85 448.242 43.7C447.942 47.5 447.567 52.1 447.117 57.5C447.067 58.1 446.942 58.5 446.742 58.7C446.542 58.9 446.116 59 445.466 59H442.767ZM437.441 8.90001C437.441 6.90001 438.167 5.32501 439.617 4.17501C441.067 3.02501 443.016 2.45001 445.466 2.45001C447.616 2.45001 449.167 2.90001 450.117 3.80001C451.117 4.65001 451.617 5.80001 451.617 7.25001C451.617 9.10001 450.917 10.65 449.517 11.9C448.167 13.1 446.167 13.7 443.517 13.7C439.467 13.7 437.441 12.1 437.441 8.90001Z" fill="url(#paint11_linear_331_26)"/>
<path d="M474.435 59.75C470.985 59.75 468.11 59.275 465.81 58.325C463.56 57.325 461.76 55.975 460.41 54.275C459.06 52.575 458.11 50.6 457.56 48.35C457.01 46.05 456.735 43.6 456.735 41C456.735 38 457.085 35.075 457.785 32.225C458.535 29.325 459.785 26.75 461.535 24.5C463.285 22.25 465.585 20.45 468.435 19.1C471.335 17.7 474.935 17 479.235 17C485.535 17 490.035 18.55 492.735 21.65C495.485 24.7 496.86 29 496.86 34.55C496.86 36.1 496.735 37.825 496.485 39.725C496.285 41.575 495.86 43.425 495.21 45.275C494.61 47.125 493.76 48.925 492.66 50.675C491.61 52.425 490.26 53.975 488.61 55.325C486.96 56.675 484.96 57.75 482.61 58.55C480.31 59.35 477.585 59.75 474.435 59.75ZM477.96 26.975C476.06 26.975 474.535 27.475 473.385 28.475C472.285 29.425 471.435 30.6 470.835 32C470.285 33.35 469.91 34.8 469.71 36.35C469.56 37.85 469.485 39.125 469.485 40.175C469.485 43.475 470.01 45.9 471.06 47.45C472.11 49 473.61 49.775 475.56 49.775C477.31 49.775 478.735 49.225 479.835 48.125C480.985 47.025 481.86 45.7 482.46 44.15C483.11 42.6 483.535 40.975 483.735 39.275C483.985 37.575 484.11 36.15 484.11 35C484.11 32.5 483.635 30.55 482.685 29.15C481.785 27.7 480.21 26.975 477.96 26.975Z" fill="url(#paint12_linear_331_26)"/>
<path d="M529.534 52.4C529.534 51.3 529.609 49.875 529.759 48.125C529.959 46.325 530.134 44.45 530.284 42.5C530.484 40.5 530.659 38.575 530.809 36.725C531.009 34.875 531.109 33.325 531.109 32.075C531.109 30.775 530.784 29.625 530.134 28.625C529.534 27.575 528.334 27.05 526.534 27.05C524.784 27.05 523.334 27.475 522.184 28.325C521.034 29.175 520.059 30.725 519.259 32.975C518.509 35.225 517.884 38.325 517.384 42.275C516.884 46.225 516.409 51.3 515.959 57.5C515.909 58.1 515.784 58.5 515.584 58.7C515.384 58.9 514.959 59 514.309 59H511.609C510.059 59 508.784 58.85 507.784 58.55C506.834 58.2 506.059 57.725 505.459 57.125C504.909 56.525 504.509 55.8 504.259 54.95C504.059 54.05 503.959 53.025 503.959 51.875C503.959 51.125 503.984 50.075 504.034 48.725C504.134 47.325 504.284 45.425 504.484 43.025C504.684 40.575 504.909 37.5 505.159 33.8C505.459 30.05 505.809 25.425 506.209 19.925C506.259 18.825 506.384 18.175 506.584 17.975C506.734 17.825 507.134 17.75 507.784 17.75H510.709C512.209 17.75 513.434 17.925 514.384 18.275C515.384 18.625 516.184 19.1 516.784 19.7C517.384 20.25 517.809 20.925 518.059 21.725C518.309 22.475 518.459 23.25 518.509 24.05C520.059 21.4 521.834 19.575 523.834 18.575C525.834 17.525 528.334 17 531.334 17C533.434 17 535.259 17.225 536.809 17.675C538.359 18.125 539.634 18.9 540.634 20C541.684 21.05 542.459 22.45 542.959 24.2C543.459 25.9 543.709 28.025 543.709 30.575C543.709 31.375 543.659 32.525 543.559 34.025C543.459 35.525 543.334 37.175 543.184 38.975C543.034 40.725 542.859 42.575 542.659 44.525C542.509 46.425 542.359 48.2 542.209 49.85C542.059 51.5 541.934 52.95 541.834 54.2C541.734 55.45 541.684 56.275 541.684 56.675C541.684 57.775 541.559 58.45 541.309 58.7C541.059 58.9 540.509 59 539.659 59H537.259C535.659 59 534.359 58.85 533.359 58.55C532.359 58.25 531.584 57.825 531.034 57.275C530.484 56.725 530.084 56.05 529.834 55.25C529.634 54.4 529.534 53.45 529.534 52.4Z" fill="url(#paint13_linear_331_26)"/>
<path d="M569.37 17C573.62 17 576.745 17.85 578.745 19.55C580.745 21.2 581.745 23.325 581.745 25.925C581.745 28.125 581.045 29.8 579.645 30.95C578.295 32.1 576.32 32.675 573.72 32.675C573.02 32.675 572.545 32.6 572.295 32.45C572.045 32.3 571.92 32.025 571.92 31.625C571.92 31.175 571.87 30.675 571.77 30.125C571.72 29.525 571.545 28.975 571.245 28.475C570.995 27.925 570.57 27.475 569.97 27.125C569.42 26.775 568.62 26.6 567.57 26.6C566.17 26.6 565.045 26.95 564.195 27.65C563.345 28.3 562.92 29.125 562.92 30.125C562.92 31.175 563.345 32.025 564.195 32.675C565.095 33.275 566.195 33.85 567.495 34.4C568.845 34.95 570.295 35.525 571.845 36.125C573.395 36.675 574.82 37.425 576.12 38.375C577.47 39.325 578.57 40.525 579.42 41.975C580.32 43.375 580.77 45.2 580.77 47.45C580.77 51.05 579.495 54 576.945 56.3C574.395 58.6 570.57 59.75 565.47 59.75C564.07 59.75 562.445 59.625 560.595 59.375C558.795 59.175 557.07 58.85 555.42 58.4C553.77 57.9 552.37 57.25 551.22 56.45C550.12 55.65 549.57 54.65 549.57 53.45C549.57 53 549.645 52.45 549.795 51.8C549.995 51.15 550.27 50.525 550.62 49.925C551.02 49.325 551.47 48.825 551.97 48.425C552.52 47.975 553.17 47.75 553.92 47.75C554.52 47.75 555.07 47.9 555.57 48.2C556.07 48.5 556.645 48.825 557.295 49.175C557.995 49.475 558.845 49.775 559.845 50.075C560.845 50.375 562.17 50.525 563.82 50.525C565.07 50.525 566.17 50.375 567.12 50.075C568.12 49.775 568.62 49.1 568.62 48.05C568.62 47.1 568.22 46.35 567.42 45.8C566.62 45.2 565.595 44.65 564.345 44.15C563.145 43.65 561.82 43.125 560.37 42.575C558.97 41.975 557.645 41.2 556.395 40.25C555.195 39.3 554.195 38.1 553.395 36.65C552.595 35.15 552.195 33.225 552.195 30.875C552.195 28.325 552.695 26.175 553.695 24.425C554.745 22.625 556.07 21.175 557.67 20.075C559.32 18.975 561.17 18.2 563.22 17.75C565.27 17.25 567.32 17 569.37 17Z" fill="url(#paint14_linear_331_26)"/>
<path d="M42.8009 54.125C42.8009 54.525 42.5509 55.05 42.0509 55.7C41.6009 56.3 40.9509 56.9 40.1009 57.5C39.3009 58.1 38.3509 58.625 37.2509 59.075C36.2009 59.525 35.0759 59.75 33.8759 59.75C32.0259 59.75 30.4009 59.175 29.0009 58.025C27.6009 56.825 26.3259 55.2 25.1759 53.15C24.0759 51.1 23.0509 48.675 22.1009 45.875C21.1509 43.025 20.1759 39.95 19.1759 36.65L16.3259 38.525L14.9009 57.875C14.8509 58.275 14.7509 58.575 14.6009 58.775C14.4509 58.925 14.1509 59 13.7009 59H9.57588C6.72588 59 4.70088 58.45 3.50088 57.35C2.35088 56.2 1.77588 54.525 1.77588 52.325C1.77588 51.625 1.80088 50.575 1.85088 49.175C1.95088 47.725 2.07588 46.05 2.22588 44.15C2.37588 42.2 2.52588 40.075 2.67588 37.775C2.87588 35.475 3.07588 33.125 3.27588 30.725C3.62588 25.925 3.90088 22.125 4.10088 19.325C4.35088 16.525 4.52588 14.325 4.62588 12.725C4.72588 11.075 4.80088 9.87501 4.85088 9.12501C4.90088 8.32501 4.92588 7.57501 4.92588 6.87501C4.92588 6.12501 5.32588 5.75001 6.12588 5.75001H10.2509C11.8509 5.75001 13.1259 5.92501 14.0759 6.27501C15.0759 6.57501 15.8509 7.02501 16.4009 7.62501C16.9509 8.22501 17.3259 8.97501 17.5259 9.87501C17.7259 10.725 17.8259 11.725 17.8259 12.875C17.8259 14.025 17.7509 15.9 17.6009 18.5C17.5009 21.05 17.3259 23.925 17.0759 27.125C18.7759 25.025 20.8009 22.425 23.1509 19.325C25.5509 16.225 28.4509 12.4 31.8509 7.85001C32.0009 7.65001 32.2009 7.40001 32.4509 7.10001C32.7509 6.75001 33.0509 6.42501 33.3509 6.12501C33.7009 5.82501 34.0509 5.57501 34.4009 5.37501C34.8009 5.12501 35.1759 5.00001 35.5259 5.00001C36.1759 5.00001 36.9259 5.35001 37.7759 6.05001C38.6259 6.70001 39.4259 7.52501 40.1759 8.52501C40.9259 9.47501 41.5509 10.475 42.0509 11.525C42.6009 12.525 42.8759 13.375 42.8759 14.075C42.8759 15.525 41.5759 17.7 38.9759 20.6C36.3759 23.45 32.6509 26.75 27.8009 30.5C28.6509 31.95 29.6259 33.525 30.7259 35.225C31.8259 36.875 32.9259 38.575 34.0259 40.325C35.1259 42.025 36.2009 43.7 37.2509 45.35C38.3009 46.95 39.2259 48.4 40.0259 49.7C40.8759 50.95 41.5509 51.975 42.0509 52.775C42.5509 53.575 42.8009 54.025 42.8009 54.125Z" stroke="#4D311B" stroke-width="3" mask="url(#path-1-outside-1_331_26)"/>
<path d="M63.0667 24.125C63.0667 25.175 62.9667 26.65 62.7667 28.55C62.6167 30.45 62.4417 32.425 62.2417 34.475C62.0917 36.525 61.9167 38.45 61.7167 40.25C61.5667 42.05 61.4917 43.35 61.4917 44.15C61.4917 45.9 61.9167 47.275 62.7667 48.275C63.6667 49.225 64.8917 49.7 66.4417 49.7C67.7917 49.7 68.9167 49.175 69.8167 48.125C70.7667 47.025 71.5167 45.625 72.0667 43.925C72.6667 42.175 73.1417 40.2 73.4917 38C73.8417 35.8 74.0917 33.575 74.2417 31.325C74.4417 29.075 74.5917 26.9 74.6917 24.8C74.8417 22.65 74.9917 20.8 75.1417 19.25C75.1917 18.85 75.3417 18.5 75.5917 18.2C75.8417 17.9 76.2417 17.75 76.7917 17.75H79.4917C81.0417 17.75 82.2917 17.925 83.2417 18.275C84.2417 18.575 85.0167 19.025 85.5667 19.625C86.1667 20.225 86.5667 20.975 86.7667 21.875C87.0167 22.725 87.1417 23.725 87.1417 24.875C87.1417 25.625 87.0917 26.7 86.9917 28.1C86.9417 29.45 86.8167 31.35 86.6167 33.8C86.4167 36.2 86.1667 39.275 85.8667 43.025C85.6167 46.725 85.2917 51.325 84.8917 56.825C84.7917 57.875 84.6667 58.5 84.5167 58.7C84.4167 58.9 84.0167 59 83.3167 59H80.3917C78.8917 59 77.6417 58.825 76.6417 58.475C75.6917 58.125 74.9167 57.675 74.3167 57.125C73.7167 56.575 73.2917 55.925 73.0417 55.175C72.7917 54.425 72.6417 53.65 72.5917 52.85C71.8417 54.15 70.9917 55.25 70.0417 56.15C69.1417 57.05 68.1917 57.775 67.1917 58.325C66.1917 58.825 65.1667 59.175 64.1167 59.375C63.0667 59.625 62.0417 59.75 61.0417 59.75C59.1417 59.75 57.4417 59.45 55.9417 58.85C54.4417 58.2 53.1667 57.35 52.1167 56.3C51.1167 55.25 50.3417 54 49.7917 52.55C49.2417 51.1 48.9667 49.55 48.9667 47.9C48.9667 47.25 48.9917 46.2 49.0417 44.75C49.1417 43.25 49.2417 41.575 49.3417 39.725C49.4917 37.875 49.6417 35.925 49.7917 33.875C49.9417 31.775 50.0667 29.8 50.1667 27.95C50.3167 26.1 50.4417 24.475 50.5417 23.075C50.6917 21.675 50.7917 20.675 50.8417 20.075C50.9417 19.175 51.1417 18.575 51.4417 18.275C51.7417 17.925 52.2417 17.75 52.9417 17.75H55.3417C56.8917 17.75 58.1667 17.9 59.1667 18.2C60.1667 18.5 60.9417 18.925 61.4917 19.475C62.0917 20.025 62.4917 20.7 62.6917 21.5C62.9417 22.25 63.0667 23.125 63.0667 24.125Z" stroke="#4D311B" stroke-width="3" mask="url(#path-1-outside-1_331_26)"/>
<path d="M130.837 52.925C130.837 53.175 130.712 53.675 130.462 54.425C130.212 55.175 129.812 55.95 129.262 56.75C128.712 57.55 128.012 58.25 127.162 58.85C126.362 59.45 125.387 59.75 124.237 59.75C122.887 59.75 121.537 59.3 120.187 58.4C118.887 57.5 117.587 56.275 116.287 54.725C114.987 53.175 113.662 51.35 112.312 49.25C111.012 47.1 109.687 44.775 108.337 42.275C108.137 44.925 107.937 47.525 107.737 50.075C107.537 52.625 107.337 55.1 107.137 57.5C107.087 58.1 106.962 58.5 106.762 58.7C106.562 58.9 106.137 59 105.487 59H102.787C101.237 59 99.9624 58.85 98.9624 58.55C97.9624 58.2 97.1874 57.725 96.6374 57.125C96.0874 56.525 95.6874 55.775 95.4374 54.875C95.2374 53.925 95.1374 52.85 95.1374 51.65C95.1374 51.05 95.1624 50.425 95.2124 49.775C95.2624 49.125 95.3374 48.2 95.4374 47C95.5374 45.8 95.6624 44.225 95.8124 42.275C96.0124 40.325 96.2374 37.75 96.4874 34.55C96.7374 31.35 97.0124 27.425 97.3124 22.775C97.6624 18.075 98.0374 12.375 98.4374 5.67501C98.4874 4.57501 98.6124 3.92501 98.8124 3.72501C98.9624 3.57501 99.3624 3.50001 100.012 3.50001H102.937C104.487 3.50001 105.762 3.67501 106.762 4.02501C107.762 4.37501 108.562 4.85001 109.162 5.45001C109.762 6.05001 110.162 6.75001 110.362 7.55001C110.612 8.35001 110.737 9.17501 110.737 10.025C110.737 10.525 110.687 11.375 110.587 12.575C110.537 13.725 110.462 15.15 110.362 16.85C110.262 18.5 110.112 20.375 109.912 22.475C109.762 24.575 109.612 26.775 109.462 29.075L121.462 18.125C121.912 17.725 122.312 17.45 122.662 17.3C123.062 17.15 123.362 17.075 123.562 17.075C124.112 17.075 124.712 17.425 125.362 18.125C126.012 18.825 126.612 19.65 127.162 20.6C127.762 21.5 128.237 22.45 128.587 23.45C128.987 24.4 129.187 25.175 129.187 25.775C129.187 27.225 128.012 28.75 125.662 30.35C123.362 31.95 119.862 33.75 115.162 35.75C117.262 38.1 119.262 40.25 121.162 42.2C123.062 44.15 124.712 45.875 126.112 47.375C127.562 48.875 128.712 50.1 129.562 51.05C130.412 52 130.837 52.625 130.837 52.925Z" stroke="#4D311B" stroke-width="3" mask="url(#path-1-outside-1_331_26)"/>
<path d="M144.867 59C143.317 59 142.042 58.85 141.042 58.55C140.092 58.2 139.317 57.725 138.717 57.125C138.167 56.525 137.767 55.8 137.517 54.95C137.317 54.05 137.217 53.025 137.217 51.875C137.217 51.125 137.242 50.075 137.292 48.725C137.392 47.325 137.542 45.425 137.742 43.025C137.942 40.575 138.167 37.5 138.417 33.8C138.717 30.05 139.067 25.425 139.467 19.925C139.517 18.825 139.642 18.175 139.842 17.975C139.992 17.825 140.392 17.75 141.042 17.75H143.967C145.517 17.75 146.767 17.9 147.717 18.2C148.717 18.5 149.492 18.95 150.042 19.55C150.642 20.15 151.042 20.875 151.242 21.725C151.492 22.575 151.617 23.525 151.617 24.575C151.617 25.325 151.567 26.45 151.467 27.95C151.367 29.45 151.217 31.5 151.017 34.1C150.867 36.65 150.642 39.85 150.342 43.7C150.042 47.5 149.667 52.1 149.217 57.5C149.167 58.1 149.042 58.5 148.842 58.7C148.642 58.9 148.217 59 147.567 59H144.867ZM139.542 8.90001C139.542 6.90001 140.267 5.32501 141.717 4.17501C143.167 3.02501 145.117 2.45001 147.567 2.45001C149.717 2.45001 151.267 2.90001 152.217 3.80001C153.217 4.65001 153.717 5.80001 153.717 7.25001C153.717 9.10001 153.017 10.65 151.617 11.9C150.267 13.1 148.267 13.7 145.617 13.7C141.567 13.7 139.542 12.1 139.542 8.90001Z" stroke="#4D311B" stroke-width="3" mask="url(#path-1-outside-1_331_26)"/>
<path d="M165.661 15.35C164.511 15.35 163.561 14.925 162.811 14.075C162.061 13.175 161.686 11.925 161.686 10.325C161.686 9.37501 161.836 8.45001 162.136 7.55001C162.436 6.60001 162.886 5.77501 163.486 5.07501C164.086 4.37501 164.836 3.82501 165.736 3.42501C166.636 2.97501 167.686 2.75001 168.886 2.75001C169.686 2.75001 170.411 2.87501 171.061 3.12501C171.761 3.32501 172.361 3.70001 172.861 4.25001C173.361 4.75001 173.761 5.45001 174.061 6.35001C174.361 7.25001 174.511 8.40001 174.511 9.80001C174.511 11.8 174.211 13.75 173.611 15.65C173.011 17.55 172.186 19.25 171.136 20.75C170.136 22.25 168.961 23.45 167.611 24.35C166.311 25.25 164.961 25.7 163.561 25.7C162.411 25.7 161.636 25.45 161.236 24.95C160.886 24.4 160.711 23.775 160.711 23.075C160.711 22.875 160.961 22.525 161.461 22.025C162.011 21.525 162.586 20.95 163.186 20.3C163.786 19.6 164.336 18.825 164.836 17.975C165.386 17.125 165.661 16.25 165.661 15.35Z" stroke="#4D311B" stroke-width="3" mask="url(#path-1-outside-1_331_26)"/>
<path d="M196.362 17C200.612 17 203.737 17.85 205.737 19.55C207.737 21.2 208.737 23.325 208.737 25.925C208.737 28.125 208.037 29.8 206.637 30.95C205.287 32.1 203.312 32.675 200.712 32.675C200.012 32.675 199.537 32.6 199.287 32.45C199.037 32.3 198.912 32.025 198.912 31.625C198.912 31.175 198.862 30.675 198.762 30.125C198.712 29.525 198.537 28.975 198.237 28.475C197.987 27.925 197.562 27.475 196.962 27.125C196.412 26.775 195.612 26.6 194.562 26.6C193.162 26.6 192.037 26.95 191.187 27.65C190.337 28.3 189.912 29.125 189.912 30.125C189.912 31.175 190.337 32.025 191.187 32.675C192.087 33.275 193.187 33.85 194.487 34.4C195.837 34.95 197.287 35.525 198.837 36.125C200.387 36.675 201.812 37.425 203.112 38.375C204.462 39.325 205.562 40.525 206.412 41.975C207.312 43.375 207.762 45.2 207.762 47.45C207.762 51.05 206.487 54 203.937 56.3C201.387 58.6 197.562 59.75 192.462 59.75C191.062 59.75 189.437 59.625 187.587 59.375C185.787 59.175 184.062 58.85 182.412 58.4C180.762 57.9 179.362 57.25 178.212 56.45C177.112 55.65 176.562 54.65 176.562 53.45C176.562 53 176.637 52.45 176.787 51.8C176.987 51.15 177.262 50.525 177.612 49.925C178.012 49.325 178.462 48.825 178.962 48.425C179.512 47.975 180.162 47.75 180.912 47.75C181.512 47.75 182.062 47.9 182.562 48.2C183.062 48.5 183.637 48.825 184.287 49.175C184.987 49.475 185.837 49.775 186.837 50.075C187.837 50.375 189.162 50.525 190.812 50.525C192.062 50.525 193.162 50.375 194.112 50.075C195.112 49.775 195.612 49.1 195.612 48.05C195.612 47.1 195.212 46.35 194.412 45.8C193.612 45.2 192.587 44.65 191.337 44.15C190.137 43.65 188.812 43.125 187.362 42.575C185.962 41.975 184.637 41.2 183.387 40.25C182.187 39.3 181.187 38.1 180.387 36.65C179.587 35.15 179.187 33.225 179.187 30.875C179.187 28.325 179.687 26.175 180.687 24.425C181.737 22.625 183.062 21.175 184.662 20.075C186.312 18.975 188.162 18.2 190.212 17.75C192.262 17.25 194.312 17 196.362 17Z" stroke="#4D311B" stroke-width="3" mask="url(#path-1-outside-1_331_26)"/>
<path d="M256.48 48.05C258.53 48.05 260.255 47.75 261.655 47.15C263.105 46.55 264.33 45.875 265.33 45.125C266.33 44.375 267.205 43.7 267.955 43.1C268.755 42.5 269.555 42.2 270.355 42.2C271.355 42.2 271.855 42.95 271.855 44.45C271.855 45.25 271.755 46.225 271.555 47.375C271.355 48.475 271.08 49.725 270.73 51.125C270.53 51.975 270.03 52.9 269.23 53.9C268.48 54.9 267.43 55.85 266.08 56.75C264.73 57.6 263.055 58.325 261.055 58.925C259.105 59.475 256.855 59.75 254.305 59.75C251.755 59.75 249.205 59.375 246.655 58.625C244.105 57.875 241.83 56.6 239.83 54.8C237.83 53 236.205 50.575 234.955 47.525C233.705 44.475 233.08 40.65 233.08 36.05C233.08 34.4 233.18 32.5 233.38 30.35C233.63 28.15 234.08 25.9 234.73 23.6C235.38 21.3 236.28 19.05 237.43 16.85C238.63 14.6 240.155 12.6 242.005 10.85C243.855 9.10001 246.105 7.70001 248.755 6.65001C251.455 5.55001 254.655 5.00001 258.355 5.00001C261.305 5.00001 263.855 5.35001 266.005 6.05001C268.205 6.75001 270.005 7.72501 271.405 8.97501C272.855 10.175 273.905 11.6 274.555 13.25C275.255 14.9 275.605 16.65 275.605 18.5C275.605 21.7 274.655 24.05 272.755 25.55C270.905 27 268.255 27.725 264.805 27.725C263.705 27.725 263.005 27.65 262.705 27.5C262.455 27.3 262.33 26.925 262.33 26.375C262.28 24.675 262.23 23.2 262.18 21.95C262.13 20.7 261.955 19.675 261.655 18.875C261.355 18.025 260.88 17.425 260.23 17.075C259.63 16.675 258.78 16.475 257.68 16.475C256.08 16.475 254.705 16.825 253.555 17.525C252.455 18.175 251.505 19.05 250.705 20.15C249.955 21.2 249.33 22.4 248.83 23.75C248.38 25.1 248.005 26.475 247.705 27.875C247.455 29.275 247.28 30.625 247.18 31.925C247.13 33.225 247.105 34.35 247.105 35.3C247.105 39.9 247.855 43.175 249.355 45.125C250.905 47.075 253.28 48.05 256.48 48.05Z" stroke="#4D311B" stroke-width="3" mask="url(#path-1-outside-1_331_26)"/>
<path d="M305.244 35.675C304.944 35.675 304.594 35.675 304.194 35.675C303.844 35.625 303.494 35.575 303.144 35.525C302.794 35.425 302.494 35.325 302.244 35.225C301.994 35.075 301.869 34.9 301.869 34.7C301.869 34.05 301.894 33.45 301.944 32.9C301.994 32.35 302.019 31.775 302.019 31.175C302.019 30.075 301.869 29.175 301.569 28.475C301.269 27.775 300.669 27.425 299.769 27.425C298.369 27.425 297.194 28.35 296.244 30.2C295.344 32 294.769 34.725 294.519 38.375C294.419 39.975 294.269 41.8 294.069 43.85C293.919 45.85 293.769 47.8 293.619 49.7C293.469 51.55 293.344 53.2 293.244 54.65C293.144 56.1 293.094 57.05 293.094 57.5C293.094 58 292.919 58.375 292.569 58.625C292.219 58.875 291.844 59 291.444 59H288.744C287.194 59 285.919 58.85 284.919 58.55C283.969 58.2 283.194 57.725 282.594 57.125C282.044 56.525 281.644 55.8 281.394 54.95C281.194 54.05 281.094 53.025 281.094 51.875C281.094 51.125 281.119 50.075 281.169 48.725C281.269 47.325 281.419 45.425 281.619 43.025C281.819 40.575 282.044 37.5 282.294 33.8C282.594 30.05 282.944 25.425 283.344 19.925C283.444 18.475 283.969 17.75 284.919 17.75H287.844C289.244 17.75 290.419 17.9 291.369 18.2C292.319 18.5 293.094 18.925 293.694 19.475C294.294 19.975 294.719 20.575 294.969 21.275C295.269 21.975 295.469 22.7 295.569 23.45C296.169 22.3 296.869 21.325 297.669 20.525C298.519 19.675 299.394 19 300.294 18.5C301.194 17.95 302.119 17.575 303.069 17.375C304.019 17.125 304.894 17 305.694 17C306.644 17 307.594 17.175 308.544 17.525C309.544 17.875 310.444 18.4 311.244 19.1C312.044 19.8 312.669 20.7 313.119 21.8C313.619 22.9 313.869 24.2 313.869 25.7C313.869 27.05 313.669 28.325 313.269 29.525C312.869 30.725 312.294 31.8 311.544 32.75C310.794 33.65 309.869 34.375 308.769 34.925C307.719 35.425 306.544 35.675 305.244 35.675Z" stroke="#4D311B" stroke-width="3" mask="url(#path-1-outside-1_331_26)"/>
<path d="M335.733 59.75C333.533 59.75 331.333 59.475 329.133 58.925C326.983 58.375 325.033 57.425 323.283 56.075C321.583 54.725 320.183 52.925 319.083 50.675C317.983 48.425 317.433 45.6 317.433 42.2C317.433 40.95 317.533 39.45 317.733 37.7C317.933 35.95 318.308 34.15 318.858 32.3C319.458 30.45 320.258 28.625 321.258 26.825C322.308 24.975 323.658 23.325 325.308 21.875C326.958 20.425 328.958 19.25 331.308 18.35C333.658 17.45 336.458 17 339.708 17C342.308 17 344.508 17.3 346.308 17.9C348.108 18.5 349.558 19.325 350.658 20.375C351.758 21.375 352.558 22.55 353.058 23.9C353.558 25.25 353.808 26.7 353.808 28.25C353.808 30.55 353.333 32.5 352.383 34.1C351.483 35.7 350.283 37.05 348.783 38.15C347.333 39.2 345.708 40.025 343.908 40.625C342.108 41.225 340.333 41.7 338.583 42.05C336.833 42.35 335.208 42.55 333.708 42.65C332.258 42.7 331.133 42.725 330.333 42.725C330.333 43.675 330.458 44.625 330.708 45.575C331.008 46.475 331.433 47.275 331.983 47.975C332.533 48.675 333.258 49.25 334.158 49.7C335.058 50.15 336.158 50.375 337.458 50.375C338.758 50.375 339.758 50.175 340.458 49.775C341.208 49.325 341.808 48.85 342.258 48.35C342.708 47.8 343.083 47.325 343.383 46.925C343.733 46.475 344.183 46.25 344.733 46.25C344.983 46.25 345.408 46.325 346.008 46.475C346.658 46.575 347.308 46.825 347.958 47.225C348.608 47.625 349.183 48.175 349.683 48.875C350.183 49.575 350.433 50.475 350.433 51.575C350.433 53.025 349.983 54.275 349.083 55.325C348.183 56.375 347.008 57.225 345.558 57.875C344.158 58.525 342.583 59 340.833 59.3C339.083 59.6 337.383 59.75 335.733 59.75ZM337.158 26.975C336.058 26.975 335.108 27.3 334.308 27.95C333.558 28.55 332.908 29.325 332.358 30.275C331.858 31.225 331.458 32.275 331.158 33.425C330.908 34.575 330.708 35.675 330.558 36.725C333.658 36.675 336.158 36.15 338.058 35.15C340.008 34.15 340.983 32.725 340.983 30.875C340.983 29.875 340.658 28.975 340.008 28.175C339.408 27.375 338.458 26.975 337.158 26.975Z" stroke="#4D311B" stroke-width="3" mask="url(#path-1-outside-1_331_26)"/>
<path d="M357.575 49.775C357.575 45.275 359.6 41.75 363.65 39.2C367.7 36.65 373.675 35.275 381.575 35.075C381.625 34.525 381.65 34.075 381.65 33.725C381.7 33.325 381.725 32.85 381.725 32.3C381.725 30.7 381.425 29.425 380.825 28.475C380.225 27.525 378.975 27.05 377.075 27.05C376.025 27.05 375.175 27.2 374.525 27.5C373.875 27.8 373.35 28.225 372.95 28.775C372.55 29.275 372.225 29.9 371.975 30.65C371.725 31.4 371.5 32.225 371.3 33.125C371.2 33.575 370.975 33.875 370.625 34.025C370.275 34.125 369.725 34.175 368.975 34.175C363.875 34.175 361.325 32.25 361.325 28.4C361.325 26.85 361.675 25.375 362.375 23.975C363.125 22.575 364.2 21.375 365.6 20.375C367.05 19.325 368.85 18.5 371 17.9C373.15 17.3 375.65 17 378.5 17C384.05 17 388.075 18.15 390.575 20.45C393.075 22.75 394.325 26 394.325 30.2C394.325 30.75 394.25 31.75 394.1 33.2C394 34.6 393.85 36.1 393.65 37.7C393.5 39.25 393.35 40.725 393.2 42.125C393.1 43.525 393.05 44.5 393.05 45.05C393.05 46.3 393.275 47.2 393.725 47.75C394.175 48.25 394.675 48.6 395.225 48.8C395.825 49 396.35 49.15 396.8 49.25C397.25 49.35 397.475 49.6 397.475 50C397.475 51.1 397.325 52.225 397.025 53.375C396.725 54.525 396.225 55.575 395.525 56.525C394.875 57.475 393.95 58.25 392.75 58.85C391.6 59.45 390.175 59.75 388.475 59.75C386.075 59.75 384.275 59.175 383.075 58.025C381.875 56.875 381.075 55.275 380.675 53.225C379.475 54.975 377.9 56.5 375.95 57.8C374.05 59.1 371.55 59.75 368.45 59.75C366.95 59.75 365.525 59.575 364.175 59.225C362.875 58.875 361.725 58.3 360.725 57.5C359.775 56.7 359 55.675 358.4 54.425C357.85 53.125 357.575 51.575 357.575 49.775ZM380.9 41.225C379.6 41.225 378.325 41.325 377.075 41.525C375.825 41.725 374.7 42.05 373.7 42.5C372.75 42.9 371.975 43.45 371.375 44.15C370.775 44.85 370.475 45.7 370.475 46.7C370.475 47.85 370.825 48.65 371.525 49.1C372.275 49.55 373.075 49.775 373.925 49.775C374.725 49.775 375.525 49.6 376.325 49.25C377.125 48.9 377.825 48.375 378.425 47.675C379.075 46.925 379.625 46.025 380.075 44.975C380.525 43.925 380.8 42.675 380.9 41.225Z" stroke="#4D311B" stroke-width="3" mask="url(#path-1-outside-1_331_26)"/>
<path d="M419.71 27.875C419.56 29.775 419.385 31.65 419.185 33.5C419.035 35.35 418.885 37.1 418.735 38.75C418.585 40.4 418.46 41.875 418.36 43.175C418.31 44.475 418.285 45.475 418.285 46.175C418.285 47.475 418.435 48.35 418.735 48.8C419.035 49.2 419.535 49.4 420.235 49.4C420.785 49.4 421.26 49.3 421.66 49.1C422.06 48.9 422.435 48.675 422.785 48.425C423.135 48.175 423.435 47.95 423.685 47.75C423.985 47.55 424.31 47.45 424.66 47.45C425.01 47.45 425.335 47.65 425.635 48.05C425.935 48.45 426.085 49.375 426.085 50.825C426.085 53.575 425.335 55.75 423.835 57.35C422.335 58.95 419.76 59.75 416.11 59.75C412.51 59.75 409.835 58.925 408.085 57.275C406.385 55.575 405.535 53 405.535 49.55C405.535 48.8 405.56 47.925 405.61 46.925C405.71 45.875 405.835 44.525 405.985 42.875C406.135 41.225 406.31 39.2 406.51 36.8C406.76 34.4 407.01 31.425 407.26 27.875H403.285C402.885 27.875 402.635 27.8 402.535 27.65C402.485 27.45 402.46 27.175 402.46 26.825L402.685 23C402.735 22.35 402.81 21.725 402.91 21.125C403.06 20.475 403.31 19.9 403.66 19.4C404.06 18.9 404.61 18.5 405.31 18.2C406.01 17.9 406.935 17.75 408.085 17.75C408.435 16.85 408.835 15.775 409.285 14.525C409.735 13.275 410.185 12.075 410.635 10.925C411.085 9.72501 411.51 8.72501 411.91 7.92501C412.36 7.12501 412.76 6.72501 413.11 6.72501H415.285C417.385 6.72501 418.835 7.37501 419.635 8.67501C420.435 9.97501 420.835 11.525 420.835 13.325C420.835 14.325 420.76 15.8 420.61 17.75H428.485C429.285 17.75 429.685 18.1 429.685 18.8L429.385 22.85C429.285 24.35 428.86 25.575 428.11 26.525C427.41 27.425 425.935 27.875 423.685 27.875H419.71Z" stroke="#4D311B" stroke-width="3" mask="url(#path-1-outside-1_331_26)"/>
<path d="M442.767 59C441.217 59 439.941 58.85 438.941 58.55C437.991 58.2 437.217 57.725 436.617 57.125C436.067 56.525 435.667 55.8 435.417 54.95C435.217 54.05 435.117 53.025 435.117 51.875C435.117 51.125 435.141 50.075 435.191 48.725C435.291 47.325 435.442 45.425 435.642 43.025C435.842 40.575 436.066 37.5 436.316 33.8C436.616 30.05 436.967 25.425 437.367 19.925C437.417 18.825 437.542 18.175 437.742 17.975C437.892 17.825 438.291 17.75 438.941 17.75H441.867C443.417 17.75 444.667 17.9 445.617 18.2C446.617 18.5 447.391 18.95 447.941 19.55C448.541 20.15 448.942 20.875 449.142 21.725C449.392 22.575 449.517 23.525 449.517 24.575C449.517 25.325 449.467 26.45 449.367 27.95C449.267 29.45 449.117 31.5 448.917 34.1C448.767 36.65 448.542 39.85 448.242 43.7C447.942 47.5 447.567 52.1 447.117 57.5C447.067 58.1 446.942 58.5 446.742 58.7C446.542 58.9 446.116 59 445.466 59H442.767ZM437.441 8.90001C437.441 6.90001 438.167 5.32501 439.617 4.17501C441.067 3.02501 443.016 2.45001 445.466 2.45001C447.616 2.45001 449.167 2.90001 450.117 3.80001C451.117 4.65001 451.617 5.80001 451.617 7.25001C451.617 9.10001 450.917 10.65 449.517 11.9C448.167 13.1 446.167 13.7 443.517 13.7C439.467 13.7 437.441 12.1 437.441 8.90001Z" stroke="#4D311B" stroke-width="3" mask="url(#path-1-outside-1_331_26)"/>
<path d="M474.435 59.75C470.985 59.75 468.11 59.275 465.81 58.325C463.56 57.325 461.76 55.975 460.41 54.275C459.06 52.575 458.11 50.6 457.56 48.35C457.01 46.05 456.735 43.6 456.735 41C456.735 38 457.085 35.075 457.785 32.225C458.535 29.325 459.785 26.75 461.535 24.5C463.285 22.25 465.585 20.45 468.435 19.1C471.335 17.7 474.935 17 479.235 17C485.535 17 490.035 18.55 492.735 21.65C495.485 24.7 496.86 29 496.86 34.55C496.86 36.1 496.735 37.825 496.485 39.725C496.285 41.575 495.86 43.425 495.21 45.275C494.61 47.125 493.76 48.925 492.66 50.675C491.61 52.425 490.26 53.975 488.61 55.325C486.96 56.675 484.96 57.75 482.61 58.55C480.31 59.35 477.585 59.75 474.435 59.75ZM477.96 26.975C476.06 26.975 474.535 27.475 473.385 28.475C472.285 29.425 471.435 30.6 470.835 32C470.285 33.35 469.91 34.8 469.71 36.35C469.56 37.85 469.485 39.125 469.485 40.175C469.485 43.475 470.01 45.9 471.06 47.45C472.11 49 473.61 49.775 475.56 49.775C477.31 49.775 478.735 49.225 479.835 48.125C480.985 47.025 481.86 45.7 482.46 44.15C483.11 42.6 483.535 40.975 483.735 39.275C483.985 37.575 484.11 36.15 484.11 35C484.11 32.5 483.635 30.55 482.685 29.15C481.785 27.7 480.21 26.975 477.96 26.975Z" stroke="#4D311B" stroke-width="3" mask="url(#path-1-outside-1_331_26)"/>
<path d="M529.534 52.4C529.534 51.3 529.609 49.875 529.759 48.125C529.959 46.325 530.134 44.45 530.284 42.5C530.484 40.5 530.659 38.575 530.809 36.725C531.009 34.875 531.109 33.325 531.109 32.075C531.109 30.775 530.784 29.625 530.134 28.625C529.534 27.575 528.334 27.05 526.534 27.05C524.784 27.05 523.334 27.475 522.184 28.325C521.034 29.175 520.059 30.725 519.259 32.975C518.509 35.225 517.884 38.325 517.384 42.275C516.884 46.225 516.409 51.3 515.959 57.5C515.909 58.1 515.784 58.5 515.584 58.7C515.384 58.9 514.959 59 514.309 59H511.609C510.059 59 508.784 58.85 507.784 58.55C506.834 58.2 506.059 57.725 505.459 57.125C504.909 56.525 504.509 55.8 504.259 54.95C504.059 54.05 503.959 53.025 503.959 51.875C503.959 51.125 503.984 50.075 504.034 48.725C504.134 47.325 504.284 45.425 504.484 43.025C504.684 40.575 504.909 37.5 505.159 33.8C505.459 30.05 505.809 25.425 506.209 19.925C506.259 18.825 506.384 18.175 506.584 17.975C506.734 17.825 507.134 17.75 507.784 17.75H510.709C512.209 17.75 513.434 17.925 514.384 18.275C515.384 18.625 516.184 19.1 516.784 19.7C517.384 20.25 517.809 20.925 518.059 21.725C518.309 22.475 518.459 23.25 518.509 24.05C520.059 21.4 521.834 19.575 523.834 18.575C525.834 17.525 528.334 17 531.334 17C533.434 17 535.259 17.225 536.809 17.675C538.359 18.125 539.634 18.9 540.634 20C541.684 21.05 542.459 22.45 542.959 24.2C543.459 25.9 543.709 28.025 543.709 30.575C543.709 31.375 543.659 32.525 543.559 34.025C543.459 35.525 543.334 37.175 543.184 38.975C543.034 40.725 542.859 42.575 542.659 44.525C542.509 46.425 542.359 48.2 542.209 49.85C542.059 51.5 541.934 52.95 541.834 54.2C541.734 55.45 541.684 56.275 541.684 56.675C541.684 57.775 541.559 58.45 541.309 58.7C541.059 58.9 540.509 59 539.659 59H537.259C535.659 59 534.359 58.85 533.359 58.55C532.359 58.25 531.584 57.825 531.034 57.275C530.484 56.725 530.084 56.05 529.834 55.25C529.634 54.4 529.534 53.45 529.534 52.4Z" stroke="#4D311B" stroke-width="3" mask="url(#path-1-outside-1_331_26)"/>
<path d="M569.37 17C573.62 17 576.745 17.85 578.745 19.55C580.745 21.2 581.745 23.325 581.745 25.925C581.745 28.125 581.045 29.8 579.645 30.95C578.295 32.1 576.32 32.675 573.72 32.675C573.02 32.675 572.545 32.6 572.295 32.45C572.045 32.3 571.92 32.025 571.92 31.625C571.92 31.175 571.87 30.675 571.77 30.125C571.72 29.525 571.545 28.975 571.245 28.475C570.995 27.925 570.57 27.475 569.97 27.125C569.42 26.775 568.62 26.6 567.57 26.6C566.17 26.6 565.045 26.95 564.195 27.65C563.345 28.3 562.92 29.125 562.92 30.125C562.92 31.175 563.345 32.025 564.195 32.675C565.095 33.275 566.195 33.85 567.495 34.4C568.845 34.95 570.295 35.525 571.845 36.125C573.395 36.675 574.82 37.425 576.12 38.375C577.47 39.325 578.57 40.525 579.42 41.975C580.32 43.375 580.77 45.2 580.77 47.45C580.77 51.05 579.495 54 576.945 56.3C574.395 58.6 570.57 59.75 565.47 59.75C564.07 59.75 562.445 59.625 560.595 59.375C558.795 59.175 557.07 58.85 555.42 58.4C553.77 57.9 552.37 57.25 551.22 56.45C550.12 55.65 549.57 54.65 549.57 53.45C549.57 53 549.645 52.45 549.795 51.8C549.995 51.15 550.27 50.525 550.62 49.925C551.02 49.325 551.47 48.825 551.97 48.425C552.52 47.975 553.17 47.75 553.92 47.75C554.52 47.75 555.07 47.9 555.57 48.2C556.07 48.5 556.645 48.825 557.295 49.175C557.995 49.475 558.845 49.775 559.845 50.075C560.845 50.375 562.17 50.525 563.82 50.525C565.07 50.525 566.17 50.375 567.12 50.075C568.12 49.775 568.62 49.1 568.62 48.05C568.62 47.1 568.22 46.35 567.42 45.8C566.62 45.2 565.595 44.65 564.345 44.15C563.145 43.65 561.82 43.125 560.37 42.575C558.97 41.975 557.645 41.2 556.395 40.25C555.195 39.3 554.195 38.1 553.395 36.65C552.595 35.15 552.195 33.225 552.195 30.875C552.195 28.325 552.695 26.175 553.695 24.425C554.745 22.625 556.07 21.175 557.67 20.075C559.32 18.975 561.17 18.2 563.22 17.75C565.27 17.25 567.32 17 569.37 17Z" stroke="#4D311B" stroke-width="3" mask="url(#path-1-outside-1_331_26)"/>
<defs>
<linearGradient id="paint0_linear_331_26" x1="291" y1="-16" x2="291" y2="74" gradientUnits="userSpaceOnUse">
<stop stop-color="#FFB1B1"/>
<stop offset="1" stop-color="#FFE3B9"/>
</linearGradient>
<linearGradient id="paint1_linear_331_26" x1="291" y1="-16" x2="291" y2="74" gradientUnits="userSpaceOnUse">
<stop stop-color="#FFB1B1"/>
<stop offset="1" stop-color="#FFE3B9"/>
</linearGradient>
<linearGradient id="paint2_linear_331_26" x1="291" y1="-16" x2="291" y2="74" gradientUnits="userSpaceOnUse">
<stop stop-color="#FFB1B1"/>
<stop offset="1" stop-color="#FFE3B9"/>
</linearGradient>
<linearGradient id="paint3_linear_331_26" x1="291" y1="-16" x2="291" y2="74" gradientUnits="userSpaceOnUse">
<stop stop-color="#FFB1B1"/>
<stop offset="1" stop-color="#FFE3B9"/>
</linearGradient>
<linearGradient id="paint4_linear_331_26" x1="291" y1="-16" x2="291" y2="74" gradientUnits="userSpaceOnUse">
<stop stop-color="#FFB1B1"/>
<stop offset="1" stop-color="#FFE3B9"/>
</linearGradient>
<linearGradient id="paint5_linear_331_26" x1="291" y1="-16" x2="291" y2="74" gradientUnits="userSpaceOnUse">
<stop stop-color="#FFB1B1"/>
<stop offset="1" stop-color="#FFE3B9"/>
</linearGradient>
<linearGradient id="paint6_linear_331_26" x1="291" y1="-16" x2="291" y2="74" gradientUnits="userSpaceOnUse">
<stop stop-color="#FFB1B1"/>
<stop offset="1" stop-color="#FFE3B9"/>
</linearGradient>
<linearGradient id="paint7_linear_331_26" x1="291" y1="-16" x2="291" y2="74" gradientUnits="userSpaceOnUse">
<stop stop-color="#FFB1B1"/>
<stop offset="1" stop-color="#FFE3B9"/>
</linearGradient>
<linearGradient id="paint8_linear_331_26" x1="291" y1="-16" x2="291" y2="74" gradientUnits="userSpaceOnUse">
<stop stop-color="#FFB1B1"/>
<stop offset="1" stop-color="#FFE3B9"/>
</linearGradient>
<linearGradient id="paint9_linear_331_26" x1="291" y1="-16" x2="291" y2="74" gradientUnits="userSpaceOnUse">
<stop stop-color="#FFB1B1"/>
<stop offset="1" stop-color="#FFE3B9"/>
</linearGradient>
<linearGradient id="paint10_linear_331_26" x1="291" y1="-16" x2="291" y2="74" gradientUnits="userSpaceOnUse">
<stop stop-color="#FFB1B1"/>
<stop offset="1" stop-color="#FFE3B9"/>
</linearGradient>
<linearGradient id="paint11_linear_331_26" x1="291" y1="-16" x2="291" y2="74" gradientUnits="userSpaceOnUse">
<stop stop-color="#FFB1B1"/>
<stop offset="1" stop-color="#FFE3B9"/>
</linearGradient>
<linearGradient id="paint12_linear_331_26" x1="291" y1="-16" x2="291" y2="74" gradientUnits="userSpaceOnUse">
<stop stop-color="#FFB1B1"/>
<stop offset="1" stop-color="#FFE3B9"/>
</linearGradient>
<linearGradient id="paint13_linear_331_26" x1="291" y1="-16" x2="291" y2="74" gradientUnits="userSpaceOnUse">
<stop stop-color="#FFB1B1"/>
<stop offset="1" stop-color="#FFE3B9"/>
</linearGradient>
<linearGradient id="paint14_linear_331_26" x1="291" y1="-16" x2="291" y2="74" gradientUnits="userSpaceOnUse">
<stop stop-color="#FFB1B1"/>
<stop offset="1" stop-color="#FFE3B9"/>
</linearGradient>
</defs>
</svg>
